%TF.GenerationSoftware,KiCad,Pcbnew,(7.0.0-0)*%
%TF.CreationDate,2023-08-03T18:37:04+02:00*%
%TF.ProjectId,flipperbrain-shield,666c6970-7065-4726-9272-61696e2d7368,rev?*%
%TF.SameCoordinates,Original*%
%TF.FileFunction,AssemblyDrawing,Top*%
%FSLAX46Y46*%
G04 Gerber Fmt 4.6, Leading zero omitted, Abs format (unit mm)*
G04 Created by KiCad (PCBNEW (7.0.0-0)) date 2023-08-03 18:37:04*
%MOMM*%
%LPD*%
G01*
G04 APERTURE LIST*
%ADD10C,0.150000*%
%ADD11C,0.200000*%
%ADD12C,0.100000*%
G04 APERTURE END LIST*
D10*
%TO.C,SW8*%
X118137325Y-62207618D02*
X118184944Y-62064761D01*
X118184944Y-62064761D02*
X118184944Y-61826666D01*
X118184944Y-61826666D02*
X118137325Y-61731428D01*
X118137325Y-61731428D02*
X118089706Y-61683809D01*
X118089706Y-61683809D02*
X117994468Y-61636190D01*
X117994468Y-61636190D02*
X117899230Y-61636190D01*
X117899230Y-61636190D02*
X117803992Y-61683809D01*
X117803992Y-61683809D02*
X117756373Y-61731428D01*
X117756373Y-61731428D02*
X117708754Y-61826666D01*
X117708754Y-61826666D02*
X117661135Y-62017142D01*
X117661135Y-62017142D02*
X117613516Y-62112380D01*
X117613516Y-62112380D02*
X117565897Y-62159999D01*
X117565897Y-62159999D02*
X117470659Y-62207618D01*
X117470659Y-62207618D02*
X117375421Y-62207618D01*
X117375421Y-62207618D02*
X117280183Y-62159999D01*
X117280183Y-62159999D02*
X117232564Y-62112380D01*
X117232564Y-62112380D02*
X117184944Y-62017142D01*
X117184944Y-62017142D02*
X117184944Y-61779047D01*
X117184944Y-61779047D02*
X117232564Y-61636190D01*
X117184944Y-61302856D02*
X118184944Y-61064761D01*
X118184944Y-61064761D02*
X117470659Y-60874285D01*
X117470659Y-60874285D02*
X118184944Y-60683809D01*
X118184944Y-60683809D02*
X117184944Y-60445714D01*
X118280183Y-60302857D02*
X118280183Y-59540952D01*
X118184944Y-59302856D02*
X117184944Y-59302856D01*
X117184944Y-59302856D02*
X117184944Y-58921904D01*
X117184944Y-58921904D02*
X117232564Y-58826666D01*
X117232564Y-58826666D02*
X117280183Y-58779047D01*
X117280183Y-58779047D02*
X117375421Y-58731428D01*
X117375421Y-58731428D02*
X117518278Y-58731428D01*
X117518278Y-58731428D02*
X117613516Y-58779047D01*
X117613516Y-58779047D02*
X117661135Y-58826666D01*
X117661135Y-58826666D02*
X117708754Y-58921904D01*
X117708754Y-58921904D02*
X117708754Y-59302856D01*
X117518278Y-57874285D02*
X118184944Y-57874285D01*
X117518278Y-58302856D02*
X118042087Y-58302856D01*
X118042087Y-58302856D02*
X118137325Y-58255237D01*
X118137325Y-58255237D02*
X118184944Y-58159999D01*
X118184944Y-58159999D02*
X118184944Y-58017142D01*
X118184944Y-58017142D02*
X118137325Y-57921904D01*
X118137325Y-57921904D02*
X118089706Y-57874285D01*
X118137325Y-57445713D02*
X118184944Y-57350475D01*
X118184944Y-57350475D02*
X118184944Y-57159999D01*
X118184944Y-57159999D02*
X118137325Y-57064761D01*
X118137325Y-57064761D02*
X118042087Y-57017142D01*
X118042087Y-57017142D02*
X117994468Y-57017142D01*
X117994468Y-57017142D02*
X117899230Y-57064761D01*
X117899230Y-57064761D02*
X117851611Y-57159999D01*
X117851611Y-57159999D02*
X117851611Y-57302856D01*
X117851611Y-57302856D02*
X117803992Y-57398094D01*
X117803992Y-57398094D02*
X117708754Y-57445713D01*
X117708754Y-57445713D02*
X117661135Y-57445713D01*
X117661135Y-57445713D02*
X117565897Y-57398094D01*
X117565897Y-57398094D02*
X117518278Y-57302856D01*
X117518278Y-57302856D02*
X117518278Y-57159999D01*
X117518278Y-57159999D02*
X117565897Y-57064761D01*
X118184944Y-56588570D02*
X117184944Y-56588570D01*
X118184944Y-56159999D02*
X117661135Y-56159999D01*
X117661135Y-56159999D02*
X117565897Y-56207618D01*
X117565897Y-56207618D02*
X117518278Y-56302856D01*
X117518278Y-56302856D02*
X117518278Y-56445713D01*
X117518278Y-56445713D02*
X117565897Y-56540951D01*
X117565897Y-56540951D02*
X117613516Y-56588570D01*
X116121761Y-60493332D02*
X116169380Y-60350475D01*
X116169380Y-60350475D02*
X116169380Y-60112380D01*
X116169380Y-60112380D02*
X116121761Y-60017142D01*
X116121761Y-60017142D02*
X116074142Y-59969523D01*
X116074142Y-59969523D02*
X115978904Y-59921904D01*
X115978904Y-59921904D02*
X115883666Y-59921904D01*
X115883666Y-59921904D02*
X115788428Y-59969523D01*
X115788428Y-59969523D02*
X115740809Y-60017142D01*
X115740809Y-60017142D02*
X115693190Y-60112380D01*
X115693190Y-60112380D02*
X115645571Y-60302856D01*
X115645571Y-60302856D02*
X115597952Y-60398094D01*
X115597952Y-60398094D02*
X115550333Y-60445713D01*
X115550333Y-60445713D02*
X115455095Y-60493332D01*
X115455095Y-60493332D02*
X115359857Y-60493332D01*
X115359857Y-60493332D02*
X115264619Y-60445713D01*
X115264619Y-60445713D02*
X115217000Y-60398094D01*
X115217000Y-60398094D02*
X115169380Y-60302856D01*
X115169380Y-60302856D02*
X115169380Y-60064761D01*
X115169380Y-60064761D02*
X115217000Y-59921904D01*
X115169380Y-59588570D02*
X116169380Y-59350475D01*
X116169380Y-59350475D02*
X115455095Y-59159999D01*
X115455095Y-59159999D02*
X116169380Y-58969523D01*
X116169380Y-58969523D02*
X115169380Y-58731428D01*
X115597952Y-58207618D02*
X115550333Y-58302856D01*
X115550333Y-58302856D02*
X115502714Y-58350475D01*
X115502714Y-58350475D02*
X115407476Y-58398094D01*
X115407476Y-58398094D02*
X115359857Y-58398094D01*
X115359857Y-58398094D02*
X115264619Y-58350475D01*
X115264619Y-58350475D02*
X115217000Y-58302856D01*
X115217000Y-58302856D02*
X115169380Y-58207618D01*
X115169380Y-58207618D02*
X115169380Y-58017142D01*
X115169380Y-58017142D02*
X115217000Y-57921904D01*
X115217000Y-57921904D02*
X115264619Y-57874285D01*
X115264619Y-57874285D02*
X115359857Y-57826666D01*
X115359857Y-57826666D02*
X115407476Y-57826666D01*
X115407476Y-57826666D02*
X115502714Y-57874285D01*
X115502714Y-57874285D02*
X115550333Y-57921904D01*
X115550333Y-57921904D02*
X115597952Y-58017142D01*
X115597952Y-58017142D02*
X115597952Y-58207618D01*
X115597952Y-58207618D02*
X115645571Y-58302856D01*
X115645571Y-58302856D02*
X115693190Y-58350475D01*
X115693190Y-58350475D02*
X115788428Y-58398094D01*
X115788428Y-58398094D02*
X115978904Y-58398094D01*
X115978904Y-58398094D02*
X116074142Y-58350475D01*
X116074142Y-58350475D02*
X116121761Y-58302856D01*
X116121761Y-58302856D02*
X116169380Y-58207618D01*
X116169380Y-58207618D02*
X116169380Y-58017142D01*
X116169380Y-58017142D02*
X116121761Y-57921904D01*
X116121761Y-57921904D02*
X116074142Y-57874285D01*
X116074142Y-57874285D02*
X115978904Y-57826666D01*
X115978904Y-57826666D02*
X115788428Y-57826666D01*
X115788428Y-57826666D02*
X115693190Y-57874285D01*
X115693190Y-57874285D02*
X115645571Y-57921904D01*
X115645571Y-57921904D02*
X115597952Y-58017142D01*
%TO.C,SW11*%
X145218325Y-62207618D02*
X145265944Y-62064761D01*
X145265944Y-62064761D02*
X145265944Y-61826666D01*
X145265944Y-61826666D02*
X145218325Y-61731428D01*
X145218325Y-61731428D02*
X145170706Y-61683809D01*
X145170706Y-61683809D02*
X145075468Y-61636190D01*
X145075468Y-61636190D02*
X144980230Y-61636190D01*
X144980230Y-61636190D02*
X144884992Y-61683809D01*
X144884992Y-61683809D02*
X144837373Y-61731428D01*
X144837373Y-61731428D02*
X144789754Y-61826666D01*
X144789754Y-61826666D02*
X144742135Y-62017142D01*
X144742135Y-62017142D02*
X144694516Y-62112380D01*
X144694516Y-62112380D02*
X144646897Y-62159999D01*
X144646897Y-62159999D02*
X144551659Y-62207618D01*
X144551659Y-62207618D02*
X144456421Y-62207618D01*
X144456421Y-62207618D02*
X144361183Y-62159999D01*
X144361183Y-62159999D02*
X144313564Y-62112380D01*
X144313564Y-62112380D02*
X144265944Y-62017142D01*
X144265944Y-62017142D02*
X144265944Y-61779047D01*
X144265944Y-61779047D02*
X144313564Y-61636190D01*
X144265944Y-61302856D02*
X145265944Y-61064761D01*
X145265944Y-61064761D02*
X144551659Y-60874285D01*
X144551659Y-60874285D02*
X145265944Y-60683809D01*
X145265944Y-60683809D02*
X144265944Y-60445714D01*
X145361183Y-60302857D02*
X145361183Y-59540952D01*
X145265944Y-59302856D02*
X144265944Y-59302856D01*
X144265944Y-59302856D02*
X144265944Y-58921904D01*
X144265944Y-58921904D02*
X144313564Y-58826666D01*
X144313564Y-58826666D02*
X144361183Y-58779047D01*
X144361183Y-58779047D02*
X144456421Y-58731428D01*
X144456421Y-58731428D02*
X144599278Y-58731428D01*
X144599278Y-58731428D02*
X144694516Y-58779047D01*
X144694516Y-58779047D02*
X144742135Y-58826666D01*
X144742135Y-58826666D02*
X144789754Y-58921904D01*
X144789754Y-58921904D02*
X144789754Y-59302856D01*
X144599278Y-57874285D02*
X145265944Y-57874285D01*
X144599278Y-58302856D02*
X145123087Y-58302856D01*
X145123087Y-58302856D02*
X145218325Y-58255237D01*
X145218325Y-58255237D02*
X145265944Y-58159999D01*
X145265944Y-58159999D02*
X145265944Y-58017142D01*
X145265944Y-58017142D02*
X145218325Y-57921904D01*
X145218325Y-57921904D02*
X145170706Y-57874285D01*
X145218325Y-57445713D02*
X145265944Y-57350475D01*
X145265944Y-57350475D02*
X145265944Y-57159999D01*
X145265944Y-57159999D02*
X145218325Y-57064761D01*
X145218325Y-57064761D02*
X145123087Y-57017142D01*
X145123087Y-57017142D02*
X145075468Y-57017142D01*
X145075468Y-57017142D02*
X144980230Y-57064761D01*
X144980230Y-57064761D02*
X144932611Y-57159999D01*
X144932611Y-57159999D02*
X144932611Y-57302856D01*
X144932611Y-57302856D02*
X144884992Y-57398094D01*
X144884992Y-57398094D02*
X144789754Y-57445713D01*
X144789754Y-57445713D02*
X144742135Y-57445713D01*
X144742135Y-57445713D02*
X144646897Y-57398094D01*
X144646897Y-57398094D02*
X144599278Y-57302856D01*
X144599278Y-57302856D02*
X144599278Y-57159999D01*
X144599278Y-57159999D02*
X144646897Y-57064761D01*
X145265944Y-56588570D02*
X144265944Y-56588570D01*
X145265944Y-56159999D02*
X144742135Y-56159999D01*
X144742135Y-56159999D02*
X144646897Y-56207618D01*
X144646897Y-56207618D02*
X144599278Y-56302856D01*
X144599278Y-56302856D02*
X144599278Y-56445713D01*
X144599278Y-56445713D02*
X144646897Y-56540951D01*
X144646897Y-56540951D02*
X144694516Y-56588570D01*
X143202761Y-60969523D02*
X143250380Y-60826666D01*
X143250380Y-60826666D02*
X143250380Y-60588571D01*
X143250380Y-60588571D02*
X143202761Y-60493333D01*
X143202761Y-60493333D02*
X143155142Y-60445714D01*
X143155142Y-60445714D02*
X143059904Y-60398095D01*
X143059904Y-60398095D02*
X142964666Y-60398095D01*
X142964666Y-60398095D02*
X142869428Y-60445714D01*
X142869428Y-60445714D02*
X142821809Y-60493333D01*
X142821809Y-60493333D02*
X142774190Y-60588571D01*
X142774190Y-60588571D02*
X142726571Y-60779047D01*
X142726571Y-60779047D02*
X142678952Y-60874285D01*
X142678952Y-60874285D02*
X142631333Y-60921904D01*
X142631333Y-60921904D02*
X142536095Y-60969523D01*
X142536095Y-60969523D02*
X142440857Y-60969523D01*
X142440857Y-60969523D02*
X142345619Y-60921904D01*
X142345619Y-60921904D02*
X142298000Y-60874285D01*
X142298000Y-60874285D02*
X142250380Y-60779047D01*
X142250380Y-60779047D02*
X142250380Y-60540952D01*
X142250380Y-60540952D02*
X142298000Y-60398095D01*
X142250380Y-60064761D02*
X143250380Y-59826666D01*
X143250380Y-59826666D02*
X142536095Y-59636190D01*
X142536095Y-59636190D02*
X143250380Y-59445714D01*
X143250380Y-59445714D02*
X142250380Y-59207619D01*
X143250380Y-58302857D02*
X143250380Y-58874285D01*
X143250380Y-58588571D02*
X142250380Y-58588571D01*
X142250380Y-58588571D02*
X142393238Y-58683809D01*
X142393238Y-58683809D02*
X142488476Y-58779047D01*
X142488476Y-58779047D02*
X142536095Y-58874285D01*
X143250380Y-57350476D02*
X143250380Y-57921904D01*
X143250380Y-57636190D02*
X142250380Y-57636190D01*
X142250380Y-57636190D02*
X142393238Y-57731428D01*
X142393238Y-57731428D02*
X142488476Y-57826666D01*
X142488476Y-57826666D02*
X142536095Y-57921904D01*
%TO.C,SW13*%
X164496761Y-60392618D02*
X164544380Y-60249761D01*
X164544380Y-60249761D02*
X164544380Y-60011666D01*
X164544380Y-60011666D02*
X164496761Y-59916428D01*
X164496761Y-59916428D02*
X164449142Y-59868809D01*
X164449142Y-59868809D02*
X164353904Y-59821190D01*
X164353904Y-59821190D02*
X164258666Y-59821190D01*
X164258666Y-59821190D02*
X164163428Y-59868809D01*
X164163428Y-59868809D02*
X164115809Y-59916428D01*
X164115809Y-59916428D02*
X164068190Y-60011666D01*
X164068190Y-60011666D02*
X164020571Y-60202142D01*
X164020571Y-60202142D02*
X163972952Y-60297380D01*
X163972952Y-60297380D02*
X163925333Y-60344999D01*
X163925333Y-60344999D02*
X163830095Y-60392618D01*
X163830095Y-60392618D02*
X163734857Y-60392618D01*
X163734857Y-60392618D02*
X163639619Y-60344999D01*
X163639619Y-60344999D02*
X163592000Y-60297380D01*
X163592000Y-60297380D02*
X163544380Y-60202142D01*
X163544380Y-60202142D02*
X163544380Y-59964047D01*
X163544380Y-59964047D02*
X163592000Y-59821190D01*
X163544380Y-59487856D02*
X164544380Y-59249761D01*
X164544380Y-59249761D02*
X163830095Y-59059285D01*
X163830095Y-59059285D02*
X164544380Y-58868809D01*
X164544380Y-58868809D02*
X163544380Y-58630714D01*
X164639619Y-58487857D02*
X164639619Y-57725952D01*
X164544380Y-57487856D02*
X163544380Y-57487856D01*
X163544380Y-57487856D02*
X163544380Y-57106904D01*
X163544380Y-57106904D02*
X163592000Y-57011666D01*
X163592000Y-57011666D02*
X163639619Y-56964047D01*
X163639619Y-56964047D02*
X163734857Y-56916428D01*
X163734857Y-56916428D02*
X163877714Y-56916428D01*
X163877714Y-56916428D02*
X163972952Y-56964047D01*
X163972952Y-56964047D02*
X164020571Y-57011666D01*
X164020571Y-57011666D02*
X164068190Y-57106904D01*
X164068190Y-57106904D02*
X164068190Y-57487856D01*
X163877714Y-56059285D02*
X164544380Y-56059285D01*
X163877714Y-56487856D02*
X164401523Y-56487856D01*
X164401523Y-56487856D02*
X164496761Y-56440237D01*
X164496761Y-56440237D02*
X164544380Y-56344999D01*
X164544380Y-56344999D02*
X164544380Y-56202142D01*
X164544380Y-56202142D02*
X164496761Y-56106904D01*
X164496761Y-56106904D02*
X164449142Y-56059285D01*
X164496761Y-55630713D02*
X164544380Y-55535475D01*
X164544380Y-55535475D02*
X164544380Y-55344999D01*
X164544380Y-55344999D02*
X164496761Y-55249761D01*
X164496761Y-55249761D02*
X164401523Y-55202142D01*
X164401523Y-55202142D02*
X164353904Y-55202142D01*
X164353904Y-55202142D02*
X164258666Y-55249761D01*
X164258666Y-55249761D02*
X164211047Y-55344999D01*
X164211047Y-55344999D02*
X164211047Y-55487856D01*
X164211047Y-55487856D02*
X164163428Y-55583094D01*
X164163428Y-55583094D02*
X164068190Y-55630713D01*
X164068190Y-55630713D02*
X164020571Y-55630713D01*
X164020571Y-55630713D02*
X163925333Y-55583094D01*
X163925333Y-55583094D02*
X163877714Y-55487856D01*
X163877714Y-55487856D02*
X163877714Y-55344999D01*
X163877714Y-55344999D02*
X163925333Y-55249761D01*
X164544380Y-54773570D02*
X163544380Y-54773570D01*
X164544380Y-54344999D02*
X164020571Y-54344999D01*
X164020571Y-54344999D02*
X163925333Y-54392618D01*
X163925333Y-54392618D02*
X163877714Y-54487856D01*
X163877714Y-54487856D02*
X163877714Y-54630713D01*
X163877714Y-54630713D02*
X163925333Y-54725951D01*
X163925333Y-54725951D02*
X163972952Y-54773570D01*
X161256761Y-60969523D02*
X161304380Y-60826666D01*
X161304380Y-60826666D02*
X161304380Y-60588571D01*
X161304380Y-60588571D02*
X161256761Y-60493333D01*
X161256761Y-60493333D02*
X161209142Y-60445714D01*
X161209142Y-60445714D02*
X161113904Y-60398095D01*
X161113904Y-60398095D02*
X161018666Y-60398095D01*
X161018666Y-60398095D02*
X160923428Y-60445714D01*
X160923428Y-60445714D02*
X160875809Y-60493333D01*
X160875809Y-60493333D02*
X160828190Y-60588571D01*
X160828190Y-60588571D02*
X160780571Y-60779047D01*
X160780571Y-60779047D02*
X160732952Y-60874285D01*
X160732952Y-60874285D02*
X160685333Y-60921904D01*
X160685333Y-60921904D02*
X160590095Y-60969523D01*
X160590095Y-60969523D02*
X160494857Y-60969523D01*
X160494857Y-60969523D02*
X160399619Y-60921904D01*
X160399619Y-60921904D02*
X160352000Y-60874285D01*
X160352000Y-60874285D02*
X160304380Y-60779047D01*
X160304380Y-60779047D02*
X160304380Y-60540952D01*
X160304380Y-60540952D02*
X160352000Y-60398095D01*
X160304380Y-60064761D02*
X161304380Y-59826666D01*
X161304380Y-59826666D02*
X160590095Y-59636190D01*
X160590095Y-59636190D02*
X161304380Y-59445714D01*
X161304380Y-59445714D02*
X160304380Y-59207619D01*
X161304380Y-58302857D02*
X161304380Y-58874285D01*
X161304380Y-58588571D02*
X160304380Y-58588571D01*
X160304380Y-58588571D02*
X160447238Y-58683809D01*
X160447238Y-58683809D02*
X160542476Y-58779047D01*
X160542476Y-58779047D02*
X160590095Y-58874285D01*
X160304380Y-57969523D02*
X160304380Y-57350476D01*
X160304380Y-57350476D02*
X160685333Y-57683809D01*
X160685333Y-57683809D02*
X160685333Y-57540952D01*
X160685333Y-57540952D02*
X160732952Y-57445714D01*
X160732952Y-57445714D02*
X160780571Y-57398095D01*
X160780571Y-57398095D02*
X160875809Y-57350476D01*
X160875809Y-57350476D02*
X161113904Y-57350476D01*
X161113904Y-57350476D02*
X161209142Y-57398095D01*
X161209142Y-57398095D02*
X161256761Y-57445714D01*
X161256761Y-57445714D02*
X161304380Y-57540952D01*
X161304380Y-57540952D02*
X161304380Y-57826666D01*
X161304380Y-57826666D02*
X161256761Y-57921904D01*
X161256761Y-57921904D02*
X161209142Y-57969523D01*
%TO.C,D6*%
X160517142Y-80062380D02*
X160040952Y-80062380D01*
X160040952Y-80062380D02*
X160040952Y-79062380D01*
X160850476Y-79538571D02*
X161183809Y-79538571D01*
X161326666Y-80062380D02*
X160850476Y-80062380D01*
X160850476Y-80062380D02*
X160850476Y-79062380D01*
X160850476Y-79062380D02*
X161326666Y-79062380D01*
X161755238Y-80062380D02*
X161755238Y-79062380D01*
X161755238Y-79062380D02*
X161993333Y-79062380D01*
X161993333Y-79062380D02*
X162136190Y-79110000D01*
X162136190Y-79110000D02*
X162231428Y-79205238D01*
X162231428Y-79205238D02*
X162279047Y-79300476D01*
X162279047Y-79300476D02*
X162326666Y-79490952D01*
X162326666Y-79490952D02*
X162326666Y-79633809D01*
X162326666Y-79633809D02*
X162279047Y-79824285D01*
X162279047Y-79824285D02*
X162231428Y-79919523D01*
X162231428Y-79919523D02*
X162136190Y-80014761D01*
X162136190Y-80014761D02*
X161993333Y-80062380D01*
X161993333Y-80062380D02*
X161755238Y-80062380D01*
D11*
X160549524Y-77488904D02*
X160549524Y-76688904D01*
X160549524Y-76688904D02*
X160740000Y-76688904D01*
X160740000Y-76688904D02*
X160854286Y-76727000D01*
X160854286Y-76727000D02*
X160930476Y-76803190D01*
X160930476Y-76803190D02*
X160968571Y-76879380D01*
X160968571Y-76879380D02*
X161006667Y-77031761D01*
X161006667Y-77031761D02*
X161006667Y-77146047D01*
X161006667Y-77146047D02*
X160968571Y-77298428D01*
X160968571Y-77298428D02*
X160930476Y-77374619D01*
X160930476Y-77374619D02*
X160854286Y-77450809D01*
X160854286Y-77450809D02*
X160740000Y-77488904D01*
X160740000Y-77488904D02*
X160549524Y-77488904D01*
X161692381Y-76688904D02*
X161540000Y-76688904D01*
X161540000Y-76688904D02*
X161463809Y-76727000D01*
X161463809Y-76727000D02*
X161425714Y-76765095D01*
X161425714Y-76765095D02*
X161349524Y-76879380D01*
X161349524Y-76879380D02*
X161311428Y-77031761D01*
X161311428Y-77031761D02*
X161311428Y-77336523D01*
X161311428Y-77336523D02*
X161349524Y-77412714D01*
X161349524Y-77412714D02*
X161387619Y-77450809D01*
X161387619Y-77450809D02*
X161463809Y-77488904D01*
X161463809Y-77488904D02*
X161616190Y-77488904D01*
X161616190Y-77488904D02*
X161692381Y-77450809D01*
X161692381Y-77450809D02*
X161730476Y-77412714D01*
X161730476Y-77412714D02*
X161768571Y-77336523D01*
X161768571Y-77336523D02*
X161768571Y-77146047D01*
X161768571Y-77146047D02*
X161730476Y-77069857D01*
X161730476Y-77069857D02*
X161692381Y-77031761D01*
X161692381Y-77031761D02*
X161616190Y-76993666D01*
X161616190Y-76993666D02*
X161463809Y-76993666D01*
X161463809Y-76993666D02*
X161387619Y-77031761D01*
X161387619Y-77031761D02*
X161349524Y-77069857D01*
X161349524Y-77069857D02*
X161311428Y-77146047D01*
D10*
%TO.C,SW10*%
X134175761Y-62207618D02*
X134223380Y-62064761D01*
X134223380Y-62064761D02*
X134223380Y-61826666D01*
X134223380Y-61826666D02*
X134175761Y-61731428D01*
X134175761Y-61731428D02*
X134128142Y-61683809D01*
X134128142Y-61683809D02*
X134032904Y-61636190D01*
X134032904Y-61636190D02*
X133937666Y-61636190D01*
X133937666Y-61636190D02*
X133842428Y-61683809D01*
X133842428Y-61683809D02*
X133794809Y-61731428D01*
X133794809Y-61731428D02*
X133747190Y-61826666D01*
X133747190Y-61826666D02*
X133699571Y-62017142D01*
X133699571Y-62017142D02*
X133651952Y-62112380D01*
X133651952Y-62112380D02*
X133604333Y-62159999D01*
X133604333Y-62159999D02*
X133509095Y-62207618D01*
X133509095Y-62207618D02*
X133413857Y-62207618D01*
X133413857Y-62207618D02*
X133318619Y-62159999D01*
X133318619Y-62159999D02*
X133271000Y-62112380D01*
X133271000Y-62112380D02*
X133223380Y-62017142D01*
X133223380Y-62017142D02*
X133223380Y-61779047D01*
X133223380Y-61779047D02*
X133271000Y-61636190D01*
X133223380Y-61302856D02*
X134223380Y-61064761D01*
X134223380Y-61064761D02*
X133509095Y-60874285D01*
X133509095Y-60874285D02*
X134223380Y-60683809D01*
X134223380Y-60683809D02*
X133223380Y-60445714D01*
X134318619Y-60302857D02*
X134318619Y-59540952D01*
X134223380Y-59302856D02*
X133223380Y-59302856D01*
X133223380Y-59302856D02*
X133223380Y-58921904D01*
X133223380Y-58921904D02*
X133271000Y-58826666D01*
X133271000Y-58826666D02*
X133318619Y-58779047D01*
X133318619Y-58779047D02*
X133413857Y-58731428D01*
X133413857Y-58731428D02*
X133556714Y-58731428D01*
X133556714Y-58731428D02*
X133651952Y-58779047D01*
X133651952Y-58779047D02*
X133699571Y-58826666D01*
X133699571Y-58826666D02*
X133747190Y-58921904D01*
X133747190Y-58921904D02*
X133747190Y-59302856D01*
X133556714Y-57874285D02*
X134223380Y-57874285D01*
X133556714Y-58302856D02*
X134080523Y-58302856D01*
X134080523Y-58302856D02*
X134175761Y-58255237D01*
X134175761Y-58255237D02*
X134223380Y-58159999D01*
X134223380Y-58159999D02*
X134223380Y-58017142D01*
X134223380Y-58017142D02*
X134175761Y-57921904D01*
X134175761Y-57921904D02*
X134128142Y-57874285D01*
X134175761Y-57445713D02*
X134223380Y-57350475D01*
X134223380Y-57350475D02*
X134223380Y-57159999D01*
X134223380Y-57159999D02*
X134175761Y-57064761D01*
X134175761Y-57064761D02*
X134080523Y-57017142D01*
X134080523Y-57017142D02*
X134032904Y-57017142D01*
X134032904Y-57017142D02*
X133937666Y-57064761D01*
X133937666Y-57064761D02*
X133890047Y-57159999D01*
X133890047Y-57159999D02*
X133890047Y-57302856D01*
X133890047Y-57302856D02*
X133842428Y-57398094D01*
X133842428Y-57398094D02*
X133747190Y-57445713D01*
X133747190Y-57445713D02*
X133699571Y-57445713D01*
X133699571Y-57445713D02*
X133604333Y-57398094D01*
X133604333Y-57398094D02*
X133556714Y-57302856D01*
X133556714Y-57302856D02*
X133556714Y-57159999D01*
X133556714Y-57159999D02*
X133604333Y-57064761D01*
X134223380Y-56588570D02*
X133223380Y-56588570D01*
X134223380Y-56159999D02*
X133699571Y-56159999D01*
X133699571Y-56159999D02*
X133604333Y-56207618D01*
X133604333Y-56207618D02*
X133556714Y-56302856D01*
X133556714Y-56302856D02*
X133556714Y-56445713D01*
X133556714Y-56445713D02*
X133604333Y-56540951D01*
X133604333Y-56540951D02*
X133651952Y-56588570D01*
X136191325Y-60969523D02*
X136238944Y-60826666D01*
X136238944Y-60826666D02*
X136238944Y-60588571D01*
X136238944Y-60588571D02*
X136191325Y-60493333D01*
X136191325Y-60493333D02*
X136143706Y-60445714D01*
X136143706Y-60445714D02*
X136048468Y-60398095D01*
X136048468Y-60398095D02*
X135953230Y-60398095D01*
X135953230Y-60398095D02*
X135857992Y-60445714D01*
X135857992Y-60445714D02*
X135810373Y-60493333D01*
X135810373Y-60493333D02*
X135762754Y-60588571D01*
X135762754Y-60588571D02*
X135715135Y-60779047D01*
X135715135Y-60779047D02*
X135667516Y-60874285D01*
X135667516Y-60874285D02*
X135619897Y-60921904D01*
X135619897Y-60921904D02*
X135524659Y-60969523D01*
X135524659Y-60969523D02*
X135429421Y-60969523D01*
X135429421Y-60969523D02*
X135334183Y-60921904D01*
X135334183Y-60921904D02*
X135286564Y-60874285D01*
X135286564Y-60874285D02*
X135238944Y-60779047D01*
X135238944Y-60779047D02*
X135238944Y-60540952D01*
X135238944Y-60540952D02*
X135286564Y-60398095D01*
X135238944Y-60064761D02*
X136238944Y-59826666D01*
X136238944Y-59826666D02*
X135524659Y-59636190D01*
X135524659Y-59636190D02*
X136238944Y-59445714D01*
X136238944Y-59445714D02*
X135238944Y-59207619D01*
X136238944Y-58302857D02*
X136238944Y-58874285D01*
X136238944Y-58588571D02*
X135238944Y-58588571D01*
X135238944Y-58588571D02*
X135381802Y-58683809D01*
X135381802Y-58683809D02*
X135477040Y-58779047D01*
X135477040Y-58779047D02*
X135524659Y-58874285D01*
X135238944Y-57683809D02*
X135238944Y-57588571D01*
X135238944Y-57588571D02*
X135286564Y-57493333D01*
X135286564Y-57493333D02*
X135334183Y-57445714D01*
X135334183Y-57445714D02*
X135429421Y-57398095D01*
X135429421Y-57398095D02*
X135619897Y-57350476D01*
X135619897Y-57350476D02*
X135857992Y-57350476D01*
X135857992Y-57350476D02*
X136048468Y-57398095D01*
X136048468Y-57398095D02*
X136143706Y-57445714D01*
X136143706Y-57445714D02*
X136191325Y-57493333D01*
X136191325Y-57493333D02*
X136238944Y-57588571D01*
X136238944Y-57588571D02*
X136238944Y-57683809D01*
X136238944Y-57683809D02*
X136191325Y-57779047D01*
X136191325Y-57779047D02*
X136143706Y-57826666D01*
X136143706Y-57826666D02*
X136048468Y-57874285D01*
X136048468Y-57874285D02*
X135857992Y-57921904D01*
X135857992Y-57921904D02*
X135619897Y-57921904D01*
X135619897Y-57921904D02*
X135429421Y-57874285D01*
X135429421Y-57874285D02*
X135334183Y-57826666D01*
X135334183Y-57826666D02*
X135286564Y-57779047D01*
X135286564Y-57779047D02*
X135238944Y-57683809D01*
%TO.C,D2*%
X123969142Y-80062380D02*
X123492952Y-80062380D01*
X123492952Y-80062380D02*
X123492952Y-79062380D01*
X124302476Y-79538571D02*
X124635809Y-79538571D01*
X124778666Y-80062380D02*
X124302476Y-80062380D01*
X124302476Y-80062380D02*
X124302476Y-79062380D01*
X124302476Y-79062380D02*
X124778666Y-79062380D01*
X125207238Y-80062380D02*
X125207238Y-79062380D01*
X125207238Y-79062380D02*
X125445333Y-79062380D01*
X125445333Y-79062380D02*
X125588190Y-79110000D01*
X125588190Y-79110000D02*
X125683428Y-79205238D01*
X125683428Y-79205238D02*
X125731047Y-79300476D01*
X125731047Y-79300476D02*
X125778666Y-79490952D01*
X125778666Y-79490952D02*
X125778666Y-79633809D01*
X125778666Y-79633809D02*
X125731047Y-79824285D01*
X125731047Y-79824285D02*
X125683428Y-79919523D01*
X125683428Y-79919523D02*
X125588190Y-80014761D01*
X125588190Y-80014761D02*
X125445333Y-80062380D01*
X125445333Y-80062380D02*
X125207238Y-80062380D01*
D11*
X124001524Y-77488904D02*
X124001524Y-76688904D01*
X124001524Y-76688904D02*
X124192000Y-76688904D01*
X124192000Y-76688904D02*
X124306286Y-76727000D01*
X124306286Y-76727000D02*
X124382476Y-76803190D01*
X124382476Y-76803190D02*
X124420571Y-76879380D01*
X124420571Y-76879380D02*
X124458667Y-77031761D01*
X124458667Y-77031761D02*
X124458667Y-77146047D01*
X124458667Y-77146047D02*
X124420571Y-77298428D01*
X124420571Y-77298428D02*
X124382476Y-77374619D01*
X124382476Y-77374619D02*
X124306286Y-77450809D01*
X124306286Y-77450809D02*
X124192000Y-77488904D01*
X124192000Y-77488904D02*
X124001524Y-77488904D01*
X124763428Y-76765095D02*
X124801524Y-76727000D01*
X124801524Y-76727000D02*
X124877714Y-76688904D01*
X124877714Y-76688904D02*
X125068190Y-76688904D01*
X125068190Y-76688904D02*
X125144381Y-76727000D01*
X125144381Y-76727000D02*
X125182476Y-76765095D01*
X125182476Y-76765095D02*
X125220571Y-76841285D01*
X125220571Y-76841285D02*
X125220571Y-76917476D01*
X125220571Y-76917476D02*
X125182476Y-77031761D01*
X125182476Y-77031761D02*
X124725333Y-77488904D01*
X124725333Y-77488904D02*
X125220571Y-77488904D01*
D10*
%TO.C,D3*%
X133106142Y-80062380D02*
X132629952Y-80062380D01*
X132629952Y-80062380D02*
X132629952Y-79062380D01*
X133439476Y-79538571D02*
X133772809Y-79538571D01*
X133915666Y-80062380D02*
X133439476Y-80062380D01*
X133439476Y-80062380D02*
X133439476Y-79062380D01*
X133439476Y-79062380D02*
X133915666Y-79062380D01*
X134344238Y-80062380D02*
X134344238Y-79062380D01*
X134344238Y-79062380D02*
X134582333Y-79062380D01*
X134582333Y-79062380D02*
X134725190Y-79110000D01*
X134725190Y-79110000D02*
X134820428Y-79205238D01*
X134820428Y-79205238D02*
X134868047Y-79300476D01*
X134868047Y-79300476D02*
X134915666Y-79490952D01*
X134915666Y-79490952D02*
X134915666Y-79633809D01*
X134915666Y-79633809D02*
X134868047Y-79824285D01*
X134868047Y-79824285D02*
X134820428Y-79919523D01*
X134820428Y-79919523D02*
X134725190Y-80014761D01*
X134725190Y-80014761D02*
X134582333Y-80062380D01*
X134582333Y-80062380D02*
X134344238Y-80062380D01*
D11*
X133138524Y-77488904D02*
X133138524Y-76688904D01*
X133138524Y-76688904D02*
X133329000Y-76688904D01*
X133329000Y-76688904D02*
X133443286Y-76727000D01*
X133443286Y-76727000D02*
X133519476Y-76803190D01*
X133519476Y-76803190D02*
X133557571Y-76879380D01*
X133557571Y-76879380D02*
X133595667Y-77031761D01*
X133595667Y-77031761D02*
X133595667Y-77146047D01*
X133595667Y-77146047D02*
X133557571Y-77298428D01*
X133557571Y-77298428D02*
X133519476Y-77374619D01*
X133519476Y-77374619D02*
X133443286Y-77450809D01*
X133443286Y-77450809D02*
X133329000Y-77488904D01*
X133329000Y-77488904D02*
X133138524Y-77488904D01*
X133862333Y-76688904D02*
X134357571Y-76688904D01*
X134357571Y-76688904D02*
X134090905Y-76993666D01*
X134090905Y-76993666D02*
X134205190Y-76993666D01*
X134205190Y-76993666D02*
X134281381Y-77031761D01*
X134281381Y-77031761D02*
X134319476Y-77069857D01*
X134319476Y-77069857D02*
X134357571Y-77146047D01*
X134357571Y-77146047D02*
X134357571Y-77336523D01*
X134357571Y-77336523D02*
X134319476Y-77412714D01*
X134319476Y-77412714D02*
X134281381Y-77450809D01*
X134281381Y-77450809D02*
X134205190Y-77488904D01*
X134205190Y-77488904D02*
X133976619Y-77488904D01*
X133976619Y-77488904D02*
X133900428Y-77450809D01*
X133900428Y-77450809D02*
X133862333Y-77412714D01*
D10*
%TO.C,SW9*%
X127164325Y-62207618D02*
X127211944Y-62064761D01*
X127211944Y-62064761D02*
X127211944Y-61826666D01*
X127211944Y-61826666D02*
X127164325Y-61731428D01*
X127164325Y-61731428D02*
X127116706Y-61683809D01*
X127116706Y-61683809D02*
X127021468Y-61636190D01*
X127021468Y-61636190D02*
X126926230Y-61636190D01*
X126926230Y-61636190D02*
X126830992Y-61683809D01*
X126830992Y-61683809D02*
X126783373Y-61731428D01*
X126783373Y-61731428D02*
X126735754Y-61826666D01*
X126735754Y-61826666D02*
X126688135Y-62017142D01*
X126688135Y-62017142D02*
X126640516Y-62112380D01*
X126640516Y-62112380D02*
X126592897Y-62159999D01*
X126592897Y-62159999D02*
X126497659Y-62207618D01*
X126497659Y-62207618D02*
X126402421Y-62207618D01*
X126402421Y-62207618D02*
X126307183Y-62159999D01*
X126307183Y-62159999D02*
X126259564Y-62112380D01*
X126259564Y-62112380D02*
X126211944Y-62017142D01*
X126211944Y-62017142D02*
X126211944Y-61779047D01*
X126211944Y-61779047D02*
X126259564Y-61636190D01*
X126211944Y-61302856D02*
X127211944Y-61064761D01*
X127211944Y-61064761D02*
X126497659Y-60874285D01*
X126497659Y-60874285D02*
X127211944Y-60683809D01*
X127211944Y-60683809D02*
X126211944Y-60445714D01*
X127307183Y-60302857D02*
X127307183Y-59540952D01*
X127211944Y-59302856D02*
X126211944Y-59302856D01*
X126211944Y-59302856D02*
X126211944Y-58921904D01*
X126211944Y-58921904D02*
X126259564Y-58826666D01*
X126259564Y-58826666D02*
X126307183Y-58779047D01*
X126307183Y-58779047D02*
X126402421Y-58731428D01*
X126402421Y-58731428D02*
X126545278Y-58731428D01*
X126545278Y-58731428D02*
X126640516Y-58779047D01*
X126640516Y-58779047D02*
X126688135Y-58826666D01*
X126688135Y-58826666D02*
X126735754Y-58921904D01*
X126735754Y-58921904D02*
X126735754Y-59302856D01*
X126545278Y-57874285D02*
X127211944Y-57874285D01*
X126545278Y-58302856D02*
X127069087Y-58302856D01*
X127069087Y-58302856D02*
X127164325Y-58255237D01*
X127164325Y-58255237D02*
X127211944Y-58159999D01*
X127211944Y-58159999D02*
X127211944Y-58017142D01*
X127211944Y-58017142D02*
X127164325Y-57921904D01*
X127164325Y-57921904D02*
X127116706Y-57874285D01*
X127164325Y-57445713D02*
X127211944Y-57350475D01*
X127211944Y-57350475D02*
X127211944Y-57159999D01*
X127211944Y-57159999D02*
X127164325Y-57064761D01*
X127164325Y-57064761D02*
X127069087Y-57017142D01*
X127069087Y-57017142D02*
X127021468Y-57017142D01*
X127021468Y-57017142D02*
X126926230Y-57064761D01*
X126926230Y-57064761D02*
X126878611Y-57159999D01*
X126878611Y-57159999D02*
X126878611Y-57302856D01*
X126878611Y-57302856D02*
X126830992Y-57398094D01*
X126830992Y-57398094D02*
X126735754Y-57445713D01*
X126735754Y-57445713D02*
X126688135Y-57445713D01*
X126688135Y-57445713D02*
X126592897Y-57398094D01*
X126592897Y-57398094D02*
X126545278Y-57302856D01*
X126545278Y-57302856D02*
X126545278Y-57159999D01*
X126545278Y-57159999D02*
X126592897Y-57064761D01*
X127211944Y-56588570D02*
X126211944Y-56588570D01*
X127211944Y-56159999D02*
X126688135Y-56159999D01*
X126688135Y-56159999D02*
X126592897Y-56207618D01*
X126592897Y-56207618D02*
X126545278Y-56302856D01*
X126545278Y-56302856D02*
X126545278Y-56445713D01*
X126545278Y-56445713D02*
X126592897Y-56540951D01*
X126592897Y-56540951D02*
X126640516Y-56588570D01*
X125148761Y-60493332D02*
X125196380Y-60350475D01*
X125196380Y-60350475D02*
X125196380Y-60112380D01*
X125196380Y-60112380D02*
X125148761Y-60017142D01*
X125148761Y-60017142D02*
X125101142Y-59969523D01*
X125101142Y-59969523D02*
X125005904Y-59921904D01*
X125005904Y-59921904D02*
X124910666Y-59921904D01*
X124910666Y-59921904D02*
X124815428Y-59969523D01*
X124815428Y-59969523D02*
X124767809Y-60017142D01*
X124767809Y-60017142D02*
X124720190Y-60112380D01*
X124720190Y-60112380D02*
X124672571Y-60302856D01*
X124672571Y-60302856D02*
X124624952Y-60398094D01*
X124624952Y-60398094D02*
X124577333Y-60445713D01*
X124577333Y-60445713D02*
X124482095Y-60493332D01*
X124482095Y-60493332D02*
X124386857Y-60493332D01*
X124386857Y-60493332D02*
X124291619Y-60445713D01*
X124291619Y-60445713D02*
X124244000Y-60398094D01*
X124244000Y-60398094D02*
X124196380Y-60302856D01*
X124196380Y-60302856D02*
X124196380Y-60064761D01*
X124196380Y-60064761D02*
X124244000Y-59921904D01*
X124196380Y-59588570D02*
X125196380Y-59350475D01*
X125196380Y-59350475D02*
X124482095Y-59159999D01*
X124482095Y-59159999D02*
X125196380Y-58969523D01*
X125196380Y-58969523D02*
X124196380Y-58731428D01*
X125196380Y-58302856D02*
X125196380Y-58112380D01*
X125196380Y-58112380D02*
X125148761Y-58017142D01*
X125148761Y-58017142D02*
X125101142Y-57969523D01*
X125101142Y-57969523D02*
X124958285Y-57874285D01*
X124958285Y-57874285D02*
X124767809Y-57826666D01*
X124767809Y-57826666D02*
X124386857Y-57826666D01*
X124386857Y-57826666D02*
X124291619Y-57874285D01*
X124291619Y-57874285D02*
X124244000Y-57921904D01*
X124244000Y-57921904D02*
X124196380Y-58017142D01*
X124196380Y-58017142D02*
X124196380Y-58207618D01*
X124196380Y-58207618D02*
X124244000Y-58302856D01*
X124244000Y-58302856D02*
X124291619Y-58350475D01*
X124291619Y-58350475D02*
X124386857Y-58398094D01*
X124386857Y-58398094D02*
X124624952Y-58398094D01*
X124624952Y-58398094D02*
X124720190Y-58350475D01*
X124720190Y-58350475D02*
X124767809Y-58302856D01*
X124767809Y-58302856D02*
X124815428Y-58207618D01*
X124815428Y-58207618D02*
X124815428Y-58017142D01*
X124815428Y-58017142D02*
X124767809Y-57921904D01*
X124767809Y-57921904D02*
X124720190Y-57874285D01*
X124720190Y-57874285D02*
X124624952Y-57826666D01*
%TO.C,D1*%
X114832142Y-80062380D02*
X114355952Y-80062380D01*
X114355952Y-80062380D02*
X114355952Y-79062380D01*
X115165476Y-79538571D02*
X115498809Y-79538571D01*
X115641666Y-80062380D02*
X115165476Y-80062380D01*
X115165476Y-80062380D02*
X115165476Y-79062380D01*
X115165476Y-79062380D02*
X115641666Y-79062380D01*
X116070238Y-80062380D02*
X116070238Y-79062380D01*
X116070238Y-79062380D02*
X116308333Y-79062380D01*
X116308333Y-79062380D02*
X116451190Y-79110000D01*
X116451190Y-79110000D02*
X116546428Y-79205238D01*
X116546428Y-79205238D02*
X116594047Y-79300476D01*
X116594047Y-79300476D02*
X116641666Y-79490952D01*
X116641666Y-79490952D02*
X116641666Y-79633809D01*
X116641666Y-79633809D02*
X116594047Y-79824285D01*
X116594047Y-79824285D02*
X116546428Y-79919523D01*
X116546428Y-79919523D02*
X116451190Y-80014761D01*
X116451190Y-80014761D02*
X116308333Y-80062380D01*
X116308333Y-80062380D02*
X116070238Y-80062380D01*
D11*
X114979524Y-75853904D02*
X114979524Y-75053904D01*
X114979524Y-75053904D02*
X115170000Y-75053904D01*
X115170000Y-75053904D02*
X115284286Y-75092000D01*
X115284286Y-75092000D02*
X115360476Y-75168190D01*
X115360476Y-75168190D02*
X115398571Y-75244380D01*
X115398571Y-75244380D02*
X115436667Y-75396761D01*
X115436667Y-75396761D02*
X115436667Y-75511047D01*
X115436667Y-75511047D02*
X115398571Y-75663428D01*
X115398571Y-75663428D02*
X115360476Y-75739619D01*
X115360476Y-75739619D02*
X115284286Y-75815809D01*
X115284286Y-75815809D02*
X115170000Y-75853904D01*
X115170000Y-75853904D02*
X114979524Y-75853904D01*
X116198571Y-75853904D02*
X115741428Y-75853904D01*
X115970000Y-75853904D02*
X115970000Y-75053904D01*
X115970000Y-75053904D02*
X115893809Y-75168190D01*
X115893809Y-75168190D02*
X115817619Y-75244380D01*
X115817619Y-75244380D02*
X115741428Y-75282476D01*
D10*
%TO.C,RN1*%
X151839523Y-87235380D02*
X151506190Y-86759190D01*
X151268095Y-87235380D02*
X151268095Y-86235380D01*
X151268095Y-86235380D02*
X151649047Y-86235380D01*
X151649047Y-86235380D02*
X151744285Y-86283000D01*
X151744285Y-86283000D02*
X151791904Y-86330619D01*
X151791904Y-86330619D02*
X151839523Y-86425857D01*
X151839523Y-86425857D02*
X151839523Y-86568714D01*
X151839523Y-86568714D02*
X151791904Y-86663952D01*
X151791904Y-86663952D02*
X151744285Y-86711571D01*
X151744285Y-86711571D02*
X151649047Y-86759190D01*
X151649047Y-86759190D02*
X151268095Y-86759190D01*
X152268095Y-87235380D02*
X152268095Y-86235380D01*
X152268095Y-86235380D02*
X152839523Y-87235380D01*
X152839523Y-87235380D02*
X152839523Y-86235380D01*
X153839523Y-87235380D02*
X153268095Y-87235380D01*
X153553809Y-87235380D02*
X153553809Y-86235380D01*
X153553809Y-86235380D02*
X153458571Y-86378238D01*
X153458571Y-86378238D02*
X153363333Y-86473476D01*
X153363333Y-86473476D02*
X153268095Y-86521095D01*
%TO.C,SW12*%
X155469761Y-60392618D02*
X155517380Y-60249761D01*
X155517380Y-60249761D02*
X155517380Y-60011666D01*
X155517380Y-60011666D02*
X155469761Y-59916428D01*
X155469761Y-59916428D02*
X155422142Y-59868809D01*
X155422142Y-59868809D02*
X155326904Y-59821190D01*
X155326904Y-59821190D02*
X155231666Y-59821190D01*
X155231666Y-59821190D02*
X155136428Y-59868809D01*
X155136428Y-59868809D02*
X155088809Y-59916428D01*
X155088809Y-59916428D02*
X155041190Y-60011666D01*
X155041190Y-60011666D02*
X154993571Y-60202142D01*
X154993571Y-60202142D02*
X154945952Y-60297380D01*
X154945952Y-60297380D02*
X154898333Y-60344999D01*
X154898333Y-60344999D02*
X154803095Y-60392618D01*
X154803095Y-60392618D02*
X154707857Y-60392618D01*
X154707857Y-60392618D02*
X154612619Y-60344999D01*
X154612619Y-60344999D02*
X154565000Y-60297380D01*
X154565000Y-60297380D02*
X154517380Y-60202142D01*
X154517380Y-60202142D02*
X154517380Y-59964047D01*
X154517380Y-59964047D02*
X154565000Y-59821190D01*
X154517380Y-59487856D02*
X155517380Y-59249761D01*
X155517380Y-59249761D02*
X154803095Y-59059285D01*
X154803095Y-59059285D02*
X155517380Y-58868809D01*
X155517380Y-58868809D02*
X154517380Y-58630714D01*
X155612619Y-58487857D02*
X155612619Y-57725952D01*
X155517380Y-57487856D02*
X154517380Y-57487856D01*
X154517380Y-57487856D02*
X154517380Y-57106904D01*
X154517380Y-57106904D02*
X154565000Y-57011666D01*
X154565000Y-57011666D02*
X154612619Y-56964047D01*
X154612619Y-56964047D02*
X154707857Y-56916428D01*
X154707857Y-56916428D02*
X154850714Y-56916428D01*
X154850714Y-56916428D02*
X154945952Y-56964047D01*
X154945952Y-56964047D02*
X154993571Y-57011666D01*
X154993571Y-57011666D02*
X155041190Y-57106904D01*
X155041190Y-57106904D02*
X155041190Y-57487856D01*
X154850714Y-56059285D02*
X155517380Y-56059285D01*
X154850714Y-56487856D02*
X155374523Y-56487856D01*
X155374523Y-56487856D02*
X155469761Y-56440237D01*
X155469761Y-56440237D02*
X155517380Y-56344999D01*
X155517380Y-56344999D02*
X155517380Y-56202142D01*
X155517380Y-56202142D02*
X155469761Y-56106904D01*
X155469761Y-56106904D02*
X155422142Y-56059285D01*
X155469761Y-55630713D02*
X155517380Y-55535475D01*
X155517380Y-55535475D02*
X155517380Y-55344999D01*
X155517380Y-55344999D02*
X155469761Y-55249761D01*
X155469761Y-55249761D02*
X155374523Y-55202142D01*
X155374523Y-55202142D02*
X155326904Y-55202142D01*
X155326904Y-55202142D02*
X155231666Y-55249761D01*
X155231666Y-55249761D02*
X155184047Y-55344999D01*
X155184047Y-55344999D02*
X155184047Y-55487856D01*
X155184047Y-55487856D02*
X155136428Y-55583094D01*
X155136428Y-55583094D02*
X155041190Y-55630713D01*
X155041190Y-55630713D02*
X154993571Y-55630713D01*
X154993571Y-55630713D02*
X154898333Y-55583094D01*
X154898333Y-55583094D02*
X154850714Y-55487856D01*
X154850714Y-55487856D02*
X154850714Y-55344999D01*
X154850714Y-55344999D02*
X154898333Y-55249761D01*
X155517380Y-54773570D02*
X154517380Y-54773570D01*
X155517380Y-54344999D02*
X154993571Y-54344999D01*
X154993571Y-54344999D02*
X154898333Y-54392618D01*
X154898333Y-54392618D02*
X154850714Y-54487856D01*
X154850714Y-54487856D02*
X154850714Y-54630713D01*
X154850714Y-54630713D02*
X154898333Y-54725951D01*
X154898333Y-54725951D02*
X154945952Y-54773570D01*
X152229761Y-60969523D02*
X152277380Y-60826666D01*
X152277380Y-60826666D02*
X152277380Y-60588571D01*
X152277380Y-60588571D02*
X152229761Y-60493333D01*
X152229761Y-60493333D02*
X152182142Y-60445714D01*
X152182142Y-60445714D02*
X152086904Y-60398095D01*
X152086904Y-60398095D02*
X151991666Y-60398095D01*
X151991666Y-60398095D02*
X151896428Y-60445714D01*
X151896428Y-60445714D02*
X151848809Y-60493333D01*
X151848809Y-60493333D02*
X151801190Y-60588571D01*
X151801190Y-60588571D02*
X151753571Y-60779047D01*
X151753571Y-60779047D02*
X151705952Y-60874285D01*
X151705952Y-60874285D02*
X151658333Y-60921904D01*
X151658333Y-60921904D02*
X151563095Y-60969523D01*
X151563095Y-60969523D02*
X151467857Y-60969523D01*
X151467857Y-60969523D02*
X151372619Y-60921904D01*
X151372619Y-60921904D02*
X151325000Y-60874285D01*
X151325000Y-60874285D02*
X151277380Y-60779047D01*
X151277380Y-60779047D02*
X151277380Y-60540952D01*
X151277380Y-60540952D02*
X151325000Y-60398095D01*
X151277380Y-60064761D02*
X152277380Y-59826666D01*
X152277380Y-59826666D02*
X151563095Y-59636190D01*
X151563095Y-59636190D02*
X152277380Y-59445714D01*
X152277380Y-59445714D02*
X151277380Y-59207619D01*
X152277380Y-58302857D02*
X152277380Y-58874285D01*
X152277380Y-58588571D02*
X151277380Y-58588571D01*
X151277380Y-58588571D02*
X151420238Y-58683809D01*
X151420238Y-58683809D02*
X151515476Y-58779047D01*
X151515476Y-58779047D02*
X151563095Y-58874285D01*
X151372619Y-57921904D02*
X151325000Y-57874285D01*
X151325000Y-57874285D02*
X151277380Y-57779047D01*
X151277380Y-57779047D02*
X151277380Y-57540952D01*
X151277380Y-57540952D02*
X151325000Y-57445714D01*
X151325000Y-57445714D02*
X151372619Y-57398095D01*
X151372619Y-57398095D02*
X151467857Y-57350476D01*
X151467857Y-57350476D02*
X151563095Y-57350476D01*
X151563095Y-57350476D02*
X151705952Y-57398095D01*
X151705952Y-57398095D02*
X152277380Y-57969523D01*
X152277380Y-57969523D02*
X152277380Y-57350476D01*
%TO.C,J6*%
X99966761Y-66234095D02*
X100014380Y-66091238D01*
X100014380Y-66091238D02*
X100014380Y-65853143D01*
X100014380Y-65853143D02*
X99966761Y-65757905D01*
X99966761Y-65757905D02*
X99919142Y-65710286D01*
X99919142Y-65710286D02*
X99823904Y-65662667D01*
X99823904Y-65662667D02*
X99728666Y-65662667D01*
X99728666Y-65662667D02*
X99633428Y-65710286D01*
X99633428Y-65710286D02*
X99585809Y-65757905D01*
X99585809Y-65757905D02*
X99538190Y-65853143D01*
X99538190Y-65853143D02*
X99490571Y-66043619D01*
X99490571Y-66043619D02*
X99442952Y-66138857D01*
X99442952Y-66138857D02*
X99395333Y-66186476D01*
X99395333Y-66186476D02*
X99300095Y-66234095D01*
X99300095Y-66234095D02*
X99204857Y-66234095D01*
X99204857Y-66234095D02*
X99109619Y-66186476D01*
X99109619Y-66186476D02*
X99062000Y-66138857D01*
X99062000Y-66138857D02*
X99014380Y-66043619D01*
X99014380Y-66043619D02*
X99014380Y-65805524D01*
X99014380Y-65805524D02*
X99062000Y-65662667D01*
X99966761Y-64805524D02*
X100014380Y-64900762D01*
X100014380Y-64900762D02*
X100014380Y-65091238D01*
X100014380Y-65091238D02*
X99966761Y-65186476D01*
X99966761Y-65186476D02*
X99919142Y-65234095D01*
X99919142Y-65234095D02*
X99823904Y-65281714D01*
X99823904Y-65281714D02*
X99538190Y-65281714D01*
X99538190Y-65281714D02*
X99442952Y-65234095D01*
X99442952Y-65234095D02*
X99395333Y-65186476D01*
X99395333Y-65186476D02*
X99347714Y-65091238D01*
X99347714Y-65091238D02*
X99347714Y-64900762D01*
X99347714Y-64900762D02*
X99395333Y-64805524D01*
X100014380Y-64376952D02*
X99347714Y-64376952D01*
X99538190Y-64376952D02*
X99442952Y-64329333D01*
X99442952Y-64329333D02*
X99395333Y-64281714D01*
X99395333Y-64281714D02*
X99347714Y-64186476D01*
X99347714Y-64186476D02*
X99347714Y-64091238D01*
X99966761Y-63376952D02*
X100014380Y-63472190D01*
X100014380Y-63472190D02*
X100014380Y-63662666D01*
X100014380Y-63662666D02*
X99966761Y-63757904D01*
X99966761Y-63757904D02*
X99871523Y-63805523D01*
X99871523Y-63805523D02*
X99490571Y-63805523D01*
X99490571Y-63805523D02*
X99395333Y-63757904D01*
X99395333Y-63757904D02*
X99347714Y-63662666D01*
X99347714Y-63662666D02*
X99347714Y-63472190D01*
X99347714Y-63472190D02*
X99395333Y-63376952D01*
X99395333Y-63376952D02*
X99490571Y-63329333D01*
X99490571Y-63329333D02*
X99585809Y-63329333D01*
X99585809Y-63329333D02*
X99681047Y-63805523D01*
X99347714Y-62995999D02*
X100014380Y-62805523D01*
X100014380Y-62805523D02*
X99538190Y-62615047D01*
X99538190Y-62615047D02*
X100014380Y-62424571D01*
X100014380Y-62424571D02*
X99347714Y-62234095D01*
X100109619Y-62091238D02*
X100109619Y-61329333D01*
X99014380Y-61234094D02*
X99014380Y-60662666D01*
X100014380Y-60948380D02*
X99014380Y-60948380D01*
X99966761Y-59948380D02*
X100014380Y-60043618D01*
X100014380Y-60043618D02*
X100014380Y-60234094D01*
X100014380Y-60234094D02*
X99966761Y-60329332D01*
X99966761Y-60329332D02*
X99871523Y-60376951D01*
X99871523Y-60376951D02*
X99490571Y-60376951D01*
X99490571Y-60376951D02*
X99395333Y-60329332D01*
X99395333Y-60329332D02*
X99347714Y-60234094D01*
X99347714Y-60234094D02*
X99347714Y-60043618D01*
X99347714Y-60043618D02*
X99395333Y-59948380D01*
X99395333Y-59948380D02*
X99490571Y-59900761D01*
X99490571Y-59900761D02*
X99585809Y-59900761D01*
X99585809Y-59900761D02*
X99681047Y-60376951D01*
X100014380Y-59472189D02*
X99347714Y-59472189D01*
X99538190Y-59472189D02*
X99442952Y-59424570D01*
X99442952Y-59424570D02*
X99395333Y-59376951D01*
X99395333Y-59376951D02*
X99347714Y-59281713D01*
X99347714Y-59281713D02*
X99347714Y-59186475D01*
X100014380Y-58853141D02*
X99347714Y-58853141D01*
X99442952Y-58853141D02*
X99395333Y-58805522D01*
X99395333Y-58805522D02*
X99347714Y-58710284D01*
X99347714Y-58710284D02*
X99347714Y-58567427D01*
X99347714Y-58567427D02*
X99395333Y-58472189D01*
X99395333Y-58472189D02*
X99490571Y-58424570D01*
X99490571Y-58424570D02*
X100014380Y-58424570D01*
X99490571Y-58424570D02*
X99395333Y-58376951D01*
X99395333Y-58376951D02*
X99347714Y-58281713D01*
X99347714Y-58281713D02*
X99347714Y-58138856D01*
X99347714Y-58138856D02*
X99395333Y-58043617D01*
X99395333Y-58043617D02*
X99490571Y-57995998D01*
X99490571Y-57995998D02*
X100014380Y-57995998D01*
X100014380Y-57519808D02*
X99347714Y-57519808D01*
X99014380Y-57519808D02*
X99062000Y-57567427D01*
X99062000Y-57567427D02*
X99109619Y-57519808D01*
X99109619Y-57519808D02*
X99062000Y-57472189D01*
X99062000Y-57472189D02*
X99014380Y-57519808D01*
X99014380Y-57519808D02*
X99109619Y-57519808D01*
X99347714Y-57043618D02*
X100014380Y-57043618D01*
X99442952Y-57043618D02*
X99395333Y-56995999D01*
X99395333Y-56995999D02*
X99347714Y-56900761D01*
X99347714Y-56900761D02*
X99347714Y-56757904D01*
X99347714Y-56757904D02*
X99395333Y-56662666D01*
X99395333Y-56662666D02*
X99490571Y-56615047D01*
X99490571Y-56615047D02*
X100014380Y-56615047D01*
X100014380Y-55710285D02*
X99490571Y-55710285D01*
X99490571Y-55710285D02*
X99395333Y-55757904D01*
X99395333Y-55757904D02*
X99347714Y-55853142D01*
X99347714Y-55853142D02*
X99347714Y-56043618D01*
X99347714Y-56043618D02*
X99395333Y-56138856D01*
X99966761Y-55710285D02*
X100014380Y-55805523D01*
X100014380Y-55805523D02*
X100014380Y-56043618D01*
X100014380Y-56043618D02*
X99966761Y-56138856D01*
X99966761Y-56138856D02*
X99871523Y-56186475D01*
X99871523Y-56186475D02*
X99776285Y-56186475D01*
X99776285Y-56186475D02*
X99681047Y-56138856D01*
X99681047Y-56138856D02*
X99633428Y-56043618D01*
X99633428Y-56043618D02*
X99633428Y-55805523D01*
X99633428Y-55805523D02*
X99585809Y-55710285D01*
X100014380Y-55091237D02*
X99966761Y-55186475D01*
X99966761Y-55186475D02*
X99871523Y-55234094D01*
X99871523Y-55234094D02*
X99014380Y-55234094D01*
X100109619Y-54948380D02*
X100109619Y-54186475D01*
X99014380Y-53757903D02*
X99014380Y-53662665D01*
X99014380Y-53662665D02*
X99062000Y-53567427D01*
X99062000Y-53567427D02*
X99109619Y-53519808D01*
X99109619Y-53519808D02*
X99204857Y-53472189D01*
X99204857Y-53472189D02*
X99395333Y-53424570D01*
X99395333Y-53424570D02*
X99633428Y-53424570D01*
X99633428Y-53424570D02*
X99823904Y-53472189D01*
X99823904Y-53472189D02*
X99919142Y-53519808D01*
X99919142Y-53519808D02*
X99966761Y-53567427D01*
X99966761Y-53567427D02*
X100014380Y-53662665D01*
X100014380Y-53662665D02*
X100014380Y-53757903D01*
X100014380Y-53757903D02*
X99966761Y-53853141D01*
X99966761Y-53853141D02*
X99919142Y-53900760D01*
X99919142Y-53900760D02*
X99823904Y-53948379D01*
X99823904Y-53948379D02*
X99633428Y-53995998D01*
X99633428Y-53995998D02*
X99395333Y-53995998D01*
X99395333Y-53995998D02*
X99204857Y-53948379D01*
X99204857Y-53948379D02*
X99109619Y-53900760D01*
X99109619Y-53900760D02*
X99062000Y-53853141D01*
X99062000Y-53853141D02*
X99014380Y-53757903D01*
X100014380Y-52472189D02*
X100014380Y-53043617D01*
X100014380Y-52757903D02*
X99014380Y-52757903D01*
X99014380Y-52757903D02*
X99157238Y-52853141D01*
X99157238Y-52853141D02*
X99252476Y-52948379D01*
X99252476Y-52948379D02*
X99300095Y-53043617D01*
X100014380Y-52138855D02*
X99347714Y-51615046D01*
X99347714Y-52138855D02*
X100014380Y-51615046D01*
X99014380Y-51043617D02*
X99014380Y-50948379D01*
X99014380Y-50948379D02*
X99062000Y-50853141D01*
X99062000Y-50853141D02*
X99109619Y-50805522D01*
X99109619Y-50805522D02*
X99204857Y-50757903D01*
X99204857Y-50757903D02*
X99395333Y-50710284D01*
X99395333Y-50710284D02*
X99633428Y-50710284D01*
X99633428Y-50710284D02*
X99823904Y-50757903D01*
X99823904Y-50757903D02*
X99919142Y-50805522D01*
X99919142Y-50805522D02*
X99966761Y-50853141D01*
X99966761Y-50853141D02*
X100014380Y-50948379D01*
X100014380Y-50948379D02*
X100014380Y-51043617D01*
X100014380Y-51043617D02*
X99966761Y-51138855D01*
X99966761Y-51138855D02*
X99919142Y-51186474D01*
X99919142Y-51186474D02*
X99823904Y-51234093D01*
X99823904Y-51234093D02*
X99633428Y-51281712D01*
X99633428Y-51281712D02*
X99395333Y-51281712D01*
X99395333Y-51281712D02*
X99204857Y-51234093D01*
X99204857Y-51234093D02*
X99109619Y-51186474D01*
X99109619Y-51186474D02*
X99062000Y-51138855D01*
X99062000Y-51138855D02*
X99014380Y-51043617D01*
X99014380Y-49853141D02*
X99014380Y-50043617D01*
X99014380Y-50043617D02*
X99062000Y-50138855D01*
X99062000Y-50138855D02*
X99109619Y-50186474D01*
X99109619Y-50186474D02*
X99252476Y-50281712D01*
X99252476Y-50281712D02*
X99442952Y-50329331D01*
X99442952Y-50329331D02*
X99823904Y-50329331D01*
X99823904Y-50329331D02*
X99919142Y-50281712D01*
X99919142Y-50281712D02*
X99966761Y-50234093D01*
X99966761Y-50234093D02*
X100014380Y-50138855D01*
X100014380Y-50138855D02*
X100014380Y-49948379D01*
X100014380Y-49948379D02*
X99966761Y-49853141D01*
X99966761Y-49853141D02*
X99919142Y-49805522D01*
X99919142Y-49805522D02*
X99823904Y-49757903D01*
X99823904Y-49757903D02*
X99585809Y-49757903D01*
X99585809Y-49757903D02*
X99490571Y-49805522D01*
X99490571Y-49805522D02*
X99442952Y-49853141D01*
X99442952Y-49853141D02*
X99395333Y-49948379D01*
X99395333Y-49948379D02*
X99395333Y-50138855D01*
X99395333Y-50138855D02*
X99442952Y-50234093D01*
X99442952Y-50234093D02*
X99490571Y-50281712D01*
X99490571Y-50281712D02*
X99585809Y-50329331D01*
X102174380Y-58329333D02*
X102888666Y-58329333D01*
X102888666Y-58329333D02*
X103031523Y-58376952D01*
X103031523Y-58376952D02*
X103126761Y-58472190D01*
X103126761Y-58472190D02*
X103174380Y-58615047D01*
X103174380Y-58615047D02*
X103174380Y-58710285D01*
X102174380Y-57424571D02*
X102174380Y-57615047D01*
X102174380Y-57615047D02*
X102222000Y-57710285D01*
X102222000Y-57710285D02*
X102269619Y-57757904D01*
X102269619Y-57757904D02*
X102412476Y-57853142D01*
X102412476Y-57853142D02*
X102602952Y-57900761D01*
X102602952Y-57900761D02*
X102983904Y-57900761D01*
X102983904Y-57900761D02*
X103079142Y-57853142D01*
X103079142Y-57853142D02*
X103126761Y-57805523D01*
X103126761Y-57805523D02*
X103174380Y-57710285D01*
X103174380Y-57710285D02*
X103174380Y-57519809D01*
X103174380Y-57519809D02*
X103126761Y-57424571D01*
X103126761Y-57424571D02*
X103079142Y-57376952D01*
X103079142Y-57376952D02*
X102983904Y-57329333D01*
X102983904Y-57329333D02*
X102745809Y-57329333D01*
X102745809Y-57329333D02*
X102650571Y-57376952D01*
X102650571Y-57376952D02*
X102602952Y-57424571D01*
X102602952Y-57424571D02*
X102555333Y-57519809D01*
X102555333Y-57519809D02*
X102555333Y-57710285D01*
X102555333Y-57710285D02*
X102602952Y-57805523D01*
X102602952Y-57805523D02*
X102650571Y-57853142D01*
X102650571Y-57853142D02*
X102745809Y-57900761D01*
%TO.C,J5*%
X99966761Y-96788095D02*
X100014380Y-96645238D01*
X100014380Y-96645238D02*
X100014380Y-96407143D01*
X100014380Y-96407143D02*
X99966761Y-96311905D01*
X99966761Y-96311905D02*
X99919142Y-96264286D01*
X99919142Y-96264286D02*
X99823904Y-96216667D01*
X99823904Y-96216667D02*
X99728666Y-96216667D01*
X99728666Y-96216667D02*
X99633428Y-96264286D01*
X99633428Y-96264286D02*
X99585809Y-96311905D01*
X99585809Y-96311905D02*
X99538190Y-96407143D01*
X99538190Y-96407143D02*
X99490571Y-96597619D01*
X99490571Y-96597619D02*
X99442952Y-96692857D01*
X99442952Y-96692857D02*
X99395333Y-96740476D01*
X99395333Y-96740476D02*
X99300095Y-96788095D01*
X99300095Y-96788095D02*
X99204857Y-96788095D01*
X99204857Y-96788095D02*
X99109619Y-96740476D01*
X99109619Y-96740476D02*
X99062000Y-96692857D01*
X99062000Y-96692857D02*
X99014380Y-96597619D01*
X99014380Y-96597619D02*
X99014380Y-96359524D01*
X99014380Y-96359524D02*
X99062000Y-96216667D01*
X99966761Y-95359524D02*
X100014380Y-95454762D01*
X100014380Y-95454762D02*
X100014380Y-95645238D01*
X100014380Y-95645238D02*
X99966761Y-95740476D01*
X99966761Y-95740476D02*
X99919142Y-95788095D01*
X99919142Y-95788095D02*
X99823904Y-95835714D01*
X99823904Y-95835714D02*
X99538190Y-95835714D01*
X99538190Y-95835714D02*
X99442952Y-95788095D01*
X99442952Y-95788095D02*
X99395333Y-95740476D01*
X99395333Y-95740476D02*
X99347714Y-95645238D01*
X99347714Y-95645238D02*
X99347714Y-95454762D01*
X99347714Y-95454762D02*
X99395333Y-95359524D01*
X100014380Y-94930952D02*
X99347714Y-94930952D01*
X99538190Y-94930952D02*
X99442952Y-94883333D01*
X99442952Y-94883333D02*
X99395333Y-94835714D01*
X99395333Y-94835714D02*
X99347714Y-94740476D01*
X99347714Y-94740476D02*
X99347714Y-94645238D01*
X99966761Y-93930952D02*
X100014380Y-94026190D01*
X100014380Y-94026190D02*
X100014380Y-94216666D01*
X100014380Y-94216666D02*
X99966761Y-94311904D01*
X99966761Y-94311904D02*
X99871523Y-94359523D01*
X99871523Y-94359523D02*
X99490571Y-94359523D01*
X99490571Y-94359523D02*
X99395333Y-94311904D01*
X99395333Y-94311904D02*
X99347714Y-94216666D01*
X99347714Y-94216666D02*
X99347714Y-94026190D01*
X99347714Y-94026190D02*
X99395333Y-93930952D01*
X99395333Y-93930952D02*
X99490571Y-93883333D01*
X99490571Y-93883333D02*
X99585809Y-93883333D01*
X99585809Y-93883333D02*
X99681047Y-94359523D01*
X99347714Y-93549999D02*
X100014380Y-93359523D01*
X100014380Y-93359523D02*
X99538190Y-93169047D01*
X99538190Y-93169047D02*
X100014380Y-92978571D01*
X100014380Y-92978571D02*
X99347714Y-92788095D01*
X100109619Y-92645238D02*
X100109619Y-91883333D01*
X99014380Y-91788094D02*
X99014380Y-91216666D01*
X100014380Y-91502380D02*
X99014380Y-91502380D01*
X99966761Y-90502380D02*
X100014380Y-90597618D01*
X100014380Y-90597618D02*
X100014380Y-90788094D01*
X100014380Y-90788094D02*
X99966761Y-90883332D01*
X99966761Y-90883332D02*
X99871523Y-90930951D01*
X99871523Y-90930951D02*
X99490571Y-90930951D01*
X99490571Y-90930951D02*
X99395333Y-90883332D01*
X99395333Y-90883332D02*
X99347714Y-90788094D01*
X99347714Y-90788094D02*
X99347714Y-90597618D01*
X99347714Y-90597618D02*
X99395333Y-90502380D01*
X99395333Y-90502380D02*
X99490571Y-90454761D01*
X99490571Y-90454761D02*
X99585809Y-90454761D01*
X99585809Y-90454761D02*
X99681047Y-90930951D01*
X100014380Y-90026189D02*
X99347714Y-90026189D01*
X99538190Y-90026189D02*
X99442952Y-89978570D01*
X99442952Y-89978570D02*
X99395333Y-89930951D01*
X99395333Y-89930951D02*
X99347714Y-89835713D01*
X99347714Y-89835713D02*
X99347714Y-89740475D01*
X100014380Y-89407141D02*
X99347714Y-89407141D01*
X99442952Y-89407141D02*
X99395333Y-89359522D01*
X99395333Y-89359522D02*
X99347714Y-89264284D01*
X99347714Y-89264284D02*
X99347714Y-89121427D01*
X99347714Y-89121427D02*
X99395333Y-89026189D01*
X99395333Y-89026189D02*
X99490571Y-88978570D01*
X99490571Y-88978570D02*
X100014380Y-88978570D01*
X99490571Y-88978570D02*
X99395333Y-88930951D01*
X99395333Y-88930951D02*
X99347714Y-88835713D01*
X99347714Y-88835713D02*
X99347714Y-88692856D01*
X99347714Y-88692856D02*
X99395333Y-88597617D01*
X99395333Y-88597617D02*
X99490571Y-88549998D01*
X99490571Y-88549998D02*
X100014380Y-88549998D01*
X100014380Y-88073808D02*
X99347714Y-88073808D01*
X99014380Y-88073808D02*
X99062000Y-88121427D01*
X99062000Y-88121427D02*
X99109619Y-88073808D01*
X99109619Y-88073808D02*
X99062000Y-88026189D01*
X99062000Y-88026189D02*
X99014380Y-88073808D01*
X99014380Y-88073808D02*
X99109619Y-88073808D01*
X99347714Y-87597618D02*
X100014380Y-87597618D01*
X99442952Y-87597618D02*
X99395333Y-87549999D01*
X99395333Y-87549999D02*
X99347714Y-87454761D01*
X99347714Y-87454761D02*
X99347714Y-87311904D01*
X99347714Y-87311904D02*
X99395333Y-87216666D01*
X99395333Y-87216666D02*
X99490571Y-87169047D01*
X99490571Y-87169047D02*
X100014380Y-87169047D01*
X100014380Y-86264285D02*
X99490571Y-86264285D01*
X99490571Y-86264285D02*
X99395333Y-86311904D01*
X99395333Y-86311904D02*
X99347714Y-86407142D01*
X99347714Y-86407142D02*
X99347714Y-86597618D01*
X99347714Y-86597618D02*
X99395333Y-86692856D01*
X99966761Y-86264285D02*
X100014380Y-86359523D01*
X100014380Y-86359523D02*
X100014380Y-86597618D01*
X100014380Y-86597618D02*
X99966761Y-86692856D01*
X99966761Y-86692856D02*
X99871523Y-86740475D01*
X99871523Y-86740475D02*
X99776285Y-86740475D01*
X99776285Y-86740475D02*
X99681047Y-86692856D01*
X99681047Y-86692856D02*
X99633428Y-86597618D01*
X99633428Y-86597618D02*
X99633428Y-86359523D01*
X99633428Y-86359523D02*
X99585809Y-86264285D01*
X100014380Y-85645237D02*
X99966761Y-85740475D01*
X99966761Y-85740475D02*
X99871523Y-85788094D01*
X99871523Y-85788094D02*
X99014380Y-85788094D01*
X100109619Y-85502380D02*
X100109619Y-84740475D01*
X99014380Y-84311903D02*
X99014380Y-84216665D01*
X99014380Y-84216665D02*
X99062000Y-84121427D01*
X99062000Y-84121427D02*
X99109619Y-84073808D01*
X99109619Y-84073808D02*
X99204857Y-84026189D01*
X99204857Y-84026189D02*
X99395333Y-83978570D01*
X99395333Y-83978570D02*
X99633428Y-83978570D01*
X99633428Y-83978570D02*
X99823904Y-84026189D01*
X99823904Y-84026189D02*
X99919142Y-84073808D01*
X99919142Y-84073808D02*
X99966761Y-84121427D01*
X99966761Y-84121427D02*
X100014380Y-84216665D01*
X100014380Y-84216665D02*
X100014380Y-84311903D01*
X100014380Y-84311903D02*
X99966761Y-84407141D01*
X99966761Y-84407141D02*
X99919142Y-84454760D01*
X99919142Y-84454760D02*
X99823904Y-84502379D01*
X99823904Y-84502379D02*
X99633428Y-84549998D01*
X99633428Y-84549998D02*
X99395333Y-84549998D01*
X99395333Y-84549998D02*
X99204857Y-84502379D01*
X99204857Y-84502379D02*
X99109619Y-84454760D01*
X99109619Y-84454760D02*
X99062000Y-84407141D01*
X99062000Y-84407141D02*
X99014380Y-84311903D01*
X100014380Y-83026189D02*
X100014380Y-83597617D01*
X100014380Y-83311903D02*
X99014380Y-83311903D01*
X99014380Y-83311903D02*
X99157238Y-83407141D01*
X99157238Y-83407141D02*
X99252476Y-83502379D01*
X99252476Y-83502379D02*
X99300095Y-83597617D01*
X100014380Y-82692855D02*
X99347714Y-82169046D01*
X99347714Y-82692855D02*
X100014380Y-82169046D01*
X99014380Y-81597617D02*
X99014380Y-81502379D01*
X99014380Y-81502379D02*
X99062000Y-81407141D01*
X99062000Y-81407141D02*
X99109619Y-81359522D01*
X99109619Y-81359522D02*
X99204857Y-81311903D01*
X99204857Y-81311903D02*
X99395333Y-81264284D01*
X99395333Y-81264284D02*
X99633428Y-81264284D01*
X99633428Y-81264284D02*
X99823904Y-81311903D01*
X99823904Y-81311903D02*
X99919142Y-81359522D01*
X99919142Y-81359522D02*
X99966761Y-81407141D01*
X99966761Y-81407141D02*
X100014380Y-81502379D01*
X100014380Y-81502379D02*
X100014380Y-81597617D01*
X100014380Y-81597617D02*
X99966761Y-81692855D01*
X99966761Y-81692855D02*
X99919142Y-81740474D01*
X99919142Y-81740474D02*
X99823904Y-81788093D01*
X99823904Y-81788093D02*
X99633428Y-81835712D01*
X99633428Y-81835712D02*
X99395333Y-81835712D01*
X99395333Y-81835712D02*
X99204857Y-81788093D01*
X99204857Y-81788093D02*
X99109619Y-81740474D01*
X99109619Y-81740474D02*
X99062000Y-81692855D01*
X99062000Y-81692855D02*
X99014380Y-81597617D01*
X99014380Y-80407141D02*
X99014380Y-80597617D01*
X99014380Y-80597617D02*
X99062000Y-80692855D01*
X99062000Y-80692855D02*
X99109619Y-80740474D01*
X99109619Y-80740474D02*
X99252476Y-80835712D01*
X99252476Y-80835712D02*
X99442952Y-80883331D01*
X99442952Y-80883331D02*
X99823904Y-80883331D01*
X99823904Y-80883331D02*
X99919142Y-80835712D01*
X99919142Y-80835712D02*
X99966761Y-80788093D01*
X99966761Y-80788093D02*
X100014380Y-80692855D01*
X100014380Y-80692855D02*
X100014380Y-80502379D01*
X100014380Y-80502379D02*
X99966761Y-80407141D01*
X99966761Y-80407141D02*
X99919142Y-80359522D01*
X99919142Y-80359522D02*
X99823904Y-80311903D01*
X99823904Y-80311903D02*
X99585809Y-80311903D01*
X99585809Y-80311903D02*
X99490571Y-80359522D01*
X99490571Y-80359522D02*
X99442952Y-80407141D01*
X99442952Y-80407141D02*
X99395333Y-80502379D01*
X99395333Y-80502379D02*
X99395333Y-80692855D01*
X99395333Y-80692855D02*
X99442952Y-80788093D01*
X99442952Y-80788093D02*
X99490571Y-80835712D01*
X99490571Y-80835712D02*
X99585809Y-80883331D01*
X102174380Y-88883333D02*
X102888666Y-88883333D01*
X102888666Y-88883333D02*
X103031523Y-88930952D01*
X103031523Y-88930952D02*
X103126761Y-89026190D01*
X103126761Y-89026190D02*
X103174380Y-89169047D01*
X103174380Y-89169047D02*
X103174380Y-89264285D01*
X102174380Y-87930952D02*
X102174380Y-88407142D01*
X102174380Y-88407142D02*
X102650571Y-88454761D01*
X102650571Y-88454761D02*
X102602952Y-88407142D01*
X102602952Y-88407142D02*
X102555333Y-88311904D01*
X102555333Y-88311904D02*
X102555333Y-88073809D01*
X102555333Y-88073809D02*
X102602952Y-87978571D01*
X102602952Y-87978571D02*
X102650571Y-87930952D01*
X102650571Y-87930952D02*
X102745809Y-87883333D01*
X102745809Y-87883333D02*
X102983904Y-87883333D01*
X102983904Y-87883333D02*
X103079142Y-87930952D01*
X103079142Y-87930952D02*
X103126761Y-87978571D01*
X103126761Y-87978571D02*
X103174380Y-88073809D01*
X103174380Y-88073809D02*
X103174380Y-88311904D01*
X103174380Y-88311904D02*
X103126761Y-88407142D01*
X103126761Y-88407142D02*
X103079142Y-88454761D01*
%TO.C,D4*%
X142243142Y-80062380D02*
X141766952Y-80062380D01*
X141766952Y-80062380D02*
X141766952Y-79062380D01*
X142576476Y-79538571D02*
X142909809Y-79538571D01*
X143052666Y-80062380D02*
X142576476Y-80062380D01*
X142576476Y-80062380D02*
X142576476Y-79062380D01*
X142576476Y-79062380D02*
X143052666Y-79062380D01*
X143481238Y-80062380D02*
X143481238Y-79062380D01*
X143481238Y-79062380D02*
X143719333Y-79062380D01*
X143719333Y-79062380D02*
X143862190Y-79110000D01*
X143862190Y-79110000D02*
X143957428Y-79205238D01*
X143957428Y-79205238D02*
X144005047Y-79300476D01*
X144005047Y-79300476D02*
X144052666Y-79490952D01*
X144052666Y-79490952D02*
X144052666Y-79633809D01*
X144052666Y-79633809D02*
X144005047Y-79824285D01*
X144005047Y-79824285D02*
X143957428Y-79919523D01*
X143957428Y-79919523D02*
X143862190Y-80014761D01*
X143862190Y-80014761D02*
X143719333Y-80062380D01*
X143719333Y-80062380D02*
X143481238Y-80062380D01*
D11*
X142275524Y-77488904D02*
X142275524Y-76688904D01*
X142275524Y-76688904D02*
X142466000Y-76688904D01*
X142466000Y-76688904D02*
X142580286Y-76727000D01*
X142580286Y-76727000D02*
X142656476Y-76803190D01*
X142656476Y-76803190D02*
X142694571Y-76879380D01*
X142694571Y-76879380D02*
X142732667Y-77031761D01*
X142732667Y-77031761D02*
X142732667Y-77146047D01*
X142732667Y-77146047D02*
X142694571Y-77298428D01*
X142694571Y-77298428D02*
X142656476Y-77374619D01*
X142656476Y-77374619D02*
X142580286Y-77450809D01*
X142580286Y-77450809D02*
X142466000Y-77488904D01*
X142466000Y-77488904D02*
X142275524Y-77488904D01*
X143418381Y-76955571D02*
X143418381Y-77488904D01*
X143227905Y-76650809D02*
X143037428Y-77222238D01*
X143037428Y-77222238D02*
X143532667Y-77222238D01*
D10*
%TO.C,D5*%
X151450142Y-80322380D02*
X150973952Y-80322380D01*
X150973952Y-80322380D02*
X150973952Y-79322380D01*
X151783476Y-79798571D02*
X152116809Y-79798571D01*
X152259666Y-80322380D02*
X151783476Y-80322380D01*
X151783476Y-80322380D02*
X151783476Y-79322380D01*
X151783476Y-79322380D02*
X152259666Y-79322380D01*
X152688238Y-80322380D02*
X152688238Y-79322380D01*
X152688238Y-79322380D02*
X152926333Y-79322380D01*
X152926333Y-79322380D02*
X153069190Y-79370000D01*
X153069190Y-79370000D02*
X153164428Y-79465238D01*
X153164428Y-79465238D02*
X153212047Y-79560476D01*
X153212047Y-79560476D02*
X153259666Y-79750952D01*
X153259666Y-79750952D02*
X153259666Y-79893809D01*
X153259666Y-79893809D02*
X153212047Y-80084285D01*
X153212047Y-80084285D02*
X153164428Y-80179523D01*
X153164428Y-80179523D02*
X153069190Y-80274761D01*
X153069190Y-80274761D02*
X152926333Y-80322380D01*
X152926333Y-80322380D02*
X152688238Y-80322380D01*
D11*
X151412524Y-77488904D02*
X151412524Y-76688904D01*
X151412524Y-76688904D02*
X151603000Y-76688904D01*
X151603000Y-76688904D02*
X151717286Y-76727000D01*
X151717286Y-76727000D02*
X151793476Y-76803190D01*
X151793476Y-76803190D02*
X151831571Y-76879380D01*
X151831571Y-76879380D02*
X151869667Y-77031761D01*
X151869667Y-77031761D02*
X151869667Y-77146047D01*
X151869667Y-77146047D02*
X151831571Y-77298428D01*
X151831571Y-77298428D02*
X151793476Y-77374619D01*
X151793476Y-77374619D02*
X151717286Y-77450809D01*
X151717286Y-77450809D02*
X151603000Y-77488904D01*
X151603000Y-77488904D02*
X151412524Y-77488904D01*
X152593476Y-76688904D02*
X152212524Y-76688904D01*
X152212524Y-76688904D02*
X152174428Y-77069857D01*
X152174428Y-77069857D02*
X152212524Y-77031761D01*
X152212524Y-77031761D02*
X152288714Y-76993666D01*
X152288714Y-76993666D02*
X152479190Y-76993666D01*
X152479190Y-76993666D02*
X152555381Y-77031761D01*
X152555381Y-77031761D02*
X152593476Y-77069857D01*
X152593476Y-77069857D02*
X152631571Y-77146047D01*
X152631571Y-77146047D02*
X152631571Y-77336523D01*
X152631571Y-77336523D02*
X152593476Y-77412714D01*
X152593476Y-77412714D02*
X152555381Y-77450809D01*
X152555381Y-77450809D02*
X152479190Y-77488904D01*
X152479190Y-77488904D02*
X152288714Y-77488904D01*
X152288714Y-77488904D02*
X152212524Y-77450809D01*
X152212524Y-77450809D02*
X152174428Y-77412714D01*
D12*
%TO.C,SW8*%
X112802000Y-62160000D02*
X112802000Y-59160000D01*
X118802000Y-62160000D02*
X112802000Y-62160000D01*
X112802000Y-59160000D02*
X112802000Y-56160000D01*
X112802000Y-56160000D02*
X118802000Y-56160000D01*
X118802000Y-56160000D02*
X118802000Y-62160000D01*
X117817564Y-59160000D02*
G75*
G03*
X117817564Y-59160000I-2015564J0D01*
G01*
%TO.C,SW11*%
X139883000Y-62160000D02*
X139883000Y-59160000D01*
X145883000Y-62160000D02*
X139883000Y-62160000D01*
X139883000Y-59160000D02*
X139883000Y-56160000D01*
X139883000Y-56160000D02*
X145883000Y-56160000D01*
X145883000Y-56160000D02*
X145883000Y-62160000D01*
X144898564Y-59160000D02*
G75*
G03*
X144898564Y-59160000I-2015564J0D01*
G01*
%TO.C,SW13*%
X157937000Y-62160000D02*
X157937000Y-59160000D01*
X163937000Y-62160000D02*
X157937000Y-62160000D01*
X157937000Y-59160000D02*
X157937000Y-56160000D01*
X157937000Y-56160000D02*
X163937000Y-56160000D01*
X163937000Y-56160000D02*
X163937000Y-62160000D01*
X162952564Y-59160000D02*
G75*
G03*
X162952564Y-59160000I-2015564J0D01*
G01*
%TO.C,D6*%
X163660000Y-77195000D02*
G75*
G03*
X163660000Y-77195000I-2500000J0D01*
G01*
X158659984Y-78664666D02*
G75*
G03*
X158660000Y-75725306I2500016J1469666D01*
G01*
X158660000Y-75725306D02*
X158660000Y-78664694D01*
%TO.C,SW10*%
X130856000Y-62160000D02*
X130856000Y-59160000D01*
X136856000Y-62160000D02*
X130856000Y-62160000D01*
X130856000Y-59160000D02*
X130856000Y-56160000D01*
X130856000Y-56160000D02*
X136856000Y-56160000D01*
X136856000Y-56160000D02*
X136856000Y-62160000D01*
X135871564Y-59160000D02*
G75*
G03*
X135871564Y-59160000I-2015564J0D01*
G01*
%TO.C,D2*%
X122112000Y-75725306D02*
X122112000Y-78664694D01*
X122111984Y-78664666D02*
G75*
G03*
X122112000Y-75725306I2500016J1469666D01*
G01*
X127112000Y-77195000D02*
G75*
G03*
X127112000Y-77195000I-2500000J0D01*
G01*
%TO.C,D3*%
X131249000Y-75725306D02*
X131249000Y-78664694D01*
X131248984Y-78664666D02*
G75*
G03*
X131249000Y-75725306I2500016J1469666D01*
G01*
X136249000Y-77195000D02*
G75*
G03*
X136249000Y-77195000I-2500000J0D01*
G01*
%TO.C,SW9*%
X121829000Y-62160000D02*
X121829000Y-59160000D01*
X127829000Y-62160000D02*
X121829000Y-62160000D01*
X121829000Y-59160000D02*
X121829000Y-56160000D01*
X121829000Y-56160000D02*
X127829000Y-56160000D01*
X127829000Y-56160000D02*
X127829000Y-62160000D01*
X126844564Y-59160000D02*
G75*
G03*
X126844564Y-59160000I-2015564J0D01*
G01*
%TO.C,D1*%
X112975000Y-75725306D02*
X112975000Y-78664694D01*
X112974984Y-78664666D02*
G75*
G03*
X112975000Y-75725306I2500016J1469666D01*
G01*
X117975000Y-77195000D02*
G75*
G03*
X117975000Y-77195000I-2500000J0D01*
G01*
%TO.C,RN1*%
X141080000Y-85618000D02*
X141080000Y-88118000D01*
X141080000Y-88118000D02*
X163980000Y-88118000D01*
X161420000Y-88118000D02*
X161420000Y-85618000D01*
X163980000Y-85618000D02*
X141080000Y-85618000D01*
X163980000Y-88118000D02*
X163980000Y-85618000D01*
%TO.C,SW12*%
X148910000Y-62160000D02*
X148910000Y-59160000D01*
X154910000Y-62160000D02*
X148910000Y-62160000D01*
X148910000Y-59160000D02*
X148910000Y-56160000D01*
X148910000Y-56160000D02*
X154910000Y-56160000D01*
X154910000Y-56160000D02*
X154910000Y-62160000D01*
X153925564Y-59160000D02*
G75*
G03*
X153925564Y-59160000I-2015564J0D01*
G01*
%TO.C,J6*%
X108307000Y-47496000D02*
X108307000Y-68496000D01*
X102207000Y-47496000D02*
X102207000Y-68496000D01*
X101107000Y-47496000D02*
X108307000Y-47496000D01*
X101107000Y-47496000D02*
X101107000Y-68496000D01*
X100707000Y-47896000D02*
X101107000Y-47496000D01*
X106345000Y-50201000D02*
X104252000Y-48108000D01*
X106162000Y-50384000D02*
X104069000Y-48291000D01*
X106345000Y-53701000D02*
X104252000Y-51609000D01*
X106162000Y-53884000D02*
X104069000Y-51792000D01*
X106345000Y-57201000D02*
X104252000Y-55109000D01*
X106162000Y-57384000D02*
X104069000Y-55292000D01*
X106345000Y-60701000D02*
X104252000Y-58609000D01*
X106162000Y-60884000D02*
X104069000Y-58792000D01*
X106345000Y-64201000D02*
X104252000Y-62109000D01*
X106162000Y-64384000D02*
X104069000Y-62292000D01*
X106345000Y-67701000D02*
X104252000Y-65609000D01*
X106162000Y-67884000D02*
X104069000Y-65792000D01*
X108307000Y-68496000D02*
X100707000Y-68496000D01*
X100707000Y-68496000D02*
X100707000Y-47896000D01*
X106707000Y-49246000D02*
G75*
G03*
X106707000Y-49246000I-1500000J0D01*
G01*
X106707000Y-52746000D02*
G75*
G03*
X106707000Y-52746000I-1500000J0D01*
G01*
X106707000Y-56246000D02*
G75*
G03*
X106707000Y-56246000I-1500000J0D01*
G01*
X106707000Y-59746000D02*
G75*
G03*
X106707000Y-59746000I-1500000J0D01*
G01*
X106707000Y-63246000D02*
G75*
G03*
X106707000Y-63246000I-1500000J0D01*
G01*
X106707000Y-66746000D02*
G75*
G03*
X106707000Y-66746000I-1500000J0D01*
G01*
%TO.C,J5*%
X108307000Y-78050000D02*
X108307000Y-99050000D01*
X102207000Y-78050000D02*
X102207000Y-99050000D01*
X101107000Y-78050000D02*
X108307000Y-78050000D01*
X101107000Y-78050000D02*
X101107000Y-99050000D01*
X100707000Y-78450000D02*
X101107000Y-78050000D01*
X106345000Y-80755000D02*
X104252000Y-78662000D01*
X106162000Y-80938000D02*
X104069000Y-78845000D01*
X106345000Y-84255000D02*
X104252000Y-82163000D01*
X106162000Y-84438000D02*
X104069000Y-82346000D01*
X106345000Y-87755000D02*
X104252000Y-85663000D01*
X106162000Y-87938000D02*
X104069000Y-85846000D01*
X106345000Y-91255000D02*
X104252000Y-89163000D01*
X106162000Y-91438000D02*
X104069000Y-89346000D01*
X106345000Y-94755000D02*
X104252000Y-92663000D01*
X106162000Y-94938000D02*
X104069000Y-92846000D01*
X106345000Y-98255000D02*
X104252000Y-96163000D01*
X106162000Y-98438000D02*
X104069000Y-96346000D01*
X108307000Y-99050000D02*
X100707000Y-99050000D01*
X100707000Y-99050000D02*
X100707000Y-78450000D01*
X106707000Y-79800000D02*
G75*
G03*
X106707000Y-79800000I-1500000J0D01*
G01*
X106707000Y-83300000D02*
G75*
G03*
X106707000Y-83300000I-1500000J0D01*
G01*
X106707000Y-86800000D02*
G75*
G03*
X106707000Y-86800000I-1500000J0D01*
G01*
X106707000Y-90300000D02*
G75*
G03*
X106707000Y-90300000I-1500000J0D01*
G01*
X106707000Y-93800000D02*
G75*
G03*
X106707000Y-93800000I-1500000J0D01*
G01*
X106707000Y-97300000D02*
G75*
G03*
X106707000Y-97300000I-1500000J0D01*
G01*
%TO.C,D4*%
X140386000Y-75725306D02*
X140386000Y-78664694D01*
X140385984Y-78664666D02*
G75*
G03*
X140386000Y-75725306I2500016J1469666D01*
G01*
X145386000Y-77195000D02*
G75*
G03*
X145386000Y-77195000I-2500000J0D01*
G01*
%TO.C,D5*%
X149523000Y-75725306D02*
X149523000Y-78664694D01*
X149522984Y-78664666D02*
G75*
G03*
X149523000Y-75725306I2500016J1469666D01*
G01*
X154523000Y-77195000D02*
G75*
G03*
X154523000Y-77195000I-2500000J0D01*
G01*
%TD*%
M02*
