%TF.GenerationSoftware,KiCad,Pcbnew,(7.0.0-0)*%
%TF.CreationDate,2023-08-03T18:37:04+02:00*%
%TF.ProjectId,flipperbrain-shield,666c6970-7065-4726-9272-61696e2d7368,rev?*%
%TF.SameCoordinates,Original*%
%TF.FileFunction,Soldermask,Bot*%
%TF.FilePolarity,Negative*%
%FSLAX46Y46*%
G04 Gerber Fmt 4.6, Leading zero omitted, Abs format (unit mm)*
G04 Created by KiCad (PCBNEW (7.0.0-0)) date 2023-08-03 18:37:04*
%MOMM*%
%LPD*%
G01*
G04 APERTURE LIST*
%ADD10C,2.000000*%
%ADD11C,1.800000*%
%ADD12R,1.800000X1.800000*%
%ADD13C,3.200000*%
%ADD14O,1.600000X1.600000*%
%ADD15R,1.600000X1.600000*%
%ADD16R,2.400000X2.400000*%
%ADD17C,2.400000*%
%ADD18R,1.700000X1.700000*%
%ADD19O,1.700000X1.700000*%
G04 APERTURE END LIST*
D10*
%TO.C,SW8*%
X113552000Y-62410000D03*
X113552000Y-55910000D03*
X118052000Y-62410000D03*
X118052000Y-55910000D03*
%TD*%
%TO.C,SW11*%
X140633000Y-62410000D03*
X140633000Y-55910000D03*
X145133000Y-62410000D03*
X145133000Y-55910000D03*
%TD*%
%TO.C,SW13*%
X158687000Y-62410000D03*
X158687000Y-55910000D03*
X163187000Y-62410000D03*
X163187000Y-55910000D03*
%TD*%
D11*
%TO.C,D6*%
X162430000Y-77195000D03*
D12*
X159889999Y-77194999D03*
%TD*%
D10*
%TO.C,SW10*%
X131606000Y-62410000D03*
X131606000Y-55910000D03*
X136106000Y-62410000D03*
X136106000Y-55910000D03*
%TD*%
D12*
%TO.C,D2*%
X123341999Y-77194999D03*
D11*
X125882000Y-77195000D03*
%TD*%
D12*
%TO.C,D3*%
X132478999Y-77194999D03*
D11*
X135019000Y-77195000D03*
%TD*%
D13*
%TO.C,MH1*%
X115240000Y-49200000D03*
%TD*%
D10*
%TO.C,SW9*%
X122579000Y-62410000D03*
X122579000Y-55910000D03*
X127079000Y-62410000D03*
X127079000Y-55910000D03*
%TD*%
D12*
%TO.C,D1*%
X114204999Y-77194999D03*
D11*
X116745000Y-77195000D03*
%TD*%
D14*
%TO.C,RN1*%
X142369999Y-86867999D03*
X144909999Y-86867999D03*
X147449999Y-86867999D03*
X149989999Y-86867999D03*
X152529999Y-86867999D03*
X155069999Y-86867999D03*
X157609999Y-86867999D03*
X160149999Y-86867999D03*
D15*
X162689999Y-86867999D03*
%TD*%
D10*
%TO.C,SW12*%
X149660000Y-62410000D03*
X149660000Y-55910000D03*
X154160000Y-62410000D03*
X154160000Y-55910000D03*
%TD*%
D16*
%TO.C,J6*%
X105206999Y-49245999D03*
D17*
X105207000Y-52746000D03*
X105207000Y-56246000D03*
X105207000Y-59746000D03*
X105207000Y-63246000D03*
X105207000Y-66746000D03*
%TD*%
D16*
%TO.C,J5*%
X105206999Y-79799999D03*
D17*
X105207000Y-83300000D03*
X105207000Y-86800000D03*
X105207000Y-90300000D03*
X105207000Y-93800000D03*
X105207000Y-97300000D03*
%TD*%
D12*
%TO.C,D4*%
X141615999Y-77194999D03*
D11*
X144156000Y-77195000D03*
%TD*%
D13*
%TO.C,MH2*%
X113970000Y-97460000D03*
%TD*%
%TO.C,MH4*%
X166040000Y-92380000D03*
%TD*%
D12*
%TO.C,D5*%
X150752999Y-77194999D03*
D11*
X153293000Y-77195000D03*
%TD*%
D18*
%TO.C,J3*%
X150799999Y-97459999D03*
D19*
X153339999Y-97459999D03*
X155879999Y-97459999D03*
X158419999Y-97459999D03*
X160959999Y-97459999D03*
X163499999Y-97459999D03*
%TD*%
D18*
%TO.C,J2*%
X118795999Y-49199999D03*
D19*
X121335999Y-49199999D03*
X123875999Y-49199999D03*
X126415999Y-49199999D03*
X128955999Y-49199999D03*
X131495999Y-49199999D03*
X134035999Y-49199999D03*
X136575999Y-49199999D03*
X139115999Y-49199999D03*
X141655999Y-49199999D03*
%TD*%
D18*
%TO.C,J4*%
X145719999Y-49199999D03*
D19*
X148259999Y-49199999D03*
X150799999Y-49199999D03*
X153339999Y-49199999D03*
X155879999Y-49199999D03*
X158419999Y-49199999D03*
X160959999Y-49199999D03*
X163499999Y-49199999D03*
%TD*%
D18*
%TO.C,J1*%
X127939999Y-97459999D03*
D19*
X130479999Y-97459999D03*
X133019999Y-97459999D03*
X135559999Y-97459999D03*
X138099999Y-97459999D03*
X140639999Y-97459999D03*
X143179999Y-97459999D03*
X145719999Y-97459999D03*
%TD*%
M02*
