%TF.GenerationSoftware,KiCad,Pcbnew,(7.0.0-0)*%
%TF.CreationDate,2023-08-03T18:37:04+02:00*%
%TF.ProjectId,flipperbrain-shield,666c6970-7065-4726-9272-61696e2d7368,rev?*%
%TF.SameCoordinates,Original*%
%TF.FileFunction,AssemblyDrawing,Bot*%
%FSLAX46Y46*%
G04 Gerber Fmt 4.6, Leading zero omitted, Abs format (unit mm)*
G04 Created by KiCad (PCBNEW (7.0.0-0)) date 2023-08-03 18:37:04*
%MOMM*%
%LPD*%
G01*
G04 APERTURE LIST*
%ADD10C,0.150000*%
%ADD11C,0.100000*%
G04 APERTURE END LIST*
D10*
%TO.C,J3*%
X165911666Y-95150476D02*
X165911666Y-95626666D01*
X166197380Y-95055238D02*
X165197380Y-95388571D01*
X165197380Y-95388571D02*
X166197380Y-95721904D01*
X165530714Y-96055238D02*
X166197380Y-96055238D01*
X165625952Y-96055238D02*
X165578333Y-96102857D01*
X165578333Y-96102857D02*
X165530714Y-96198095D01*
X165530714Y-96198095D02*
X165530714Y-96340952D01*
X165530714Y-96340952D02*
X165578333Y-96436190D01*
X165578333Y-96436190D02*
X165673571Y-96483809D01*
X165673571Y-96483809D02*
X166197380Y-96483809D01*
X166197380Y-97388571D02*
X165673571Y-97388571D01*
X165673571Y-97388571D02*
X165578333Y-97340952D01*
X165578333Y-97340952D02*
X165530714Y-97245714D01*
X165530714Y-97245714D02*
X165530714Y-97055238D01*
X165530714Y-97055238D02*
X165578333Y-96960000D01*
X166149761Y-97388571D02*
X166197380Y-97293333D01*
X166197380Y-97293333D02*
X166197380Y-97055238D01*
X166197380Y-97055238D02*
X166149761Y-96960000D01*
X166149761Y-96960000D02*
X166054523Y-96912381D01*
X166054523Y-96912381D02*
X165959285Y-96912381D01*
X165959285Y-96912381D02*
X165864047Y-96960000D01*
X165864047Y-96960000D02*
X165816428Y-97055238D01*
X165816428Y-97055238D02*
X165816428Y-97293333D01*
X165816428Y-97293333D02*
X165768809Y-97388571D01*
X166197380Y-98007619D02*
X166149761Y-97912381D01*
X166149761Y-97912381D02*
X166054523Y-97864762D01*
X166054523Y-97864762D02*
X165197380Y-97864762D01*
X166197380Y-98531429D02*
X166149761Y-98436191D01*
X166149761Y-98436191D02*
X166102142Y-98388572D01*
X166102142Y-98388572D02*
X166006904Y-98340953D01*
X166006904Y-98340953D02*
X165721190Y-98340953D01*
X165721190Y-98340953D02*
X165625952Y-98388572D01*
X165625952Y-98388572D02*
X165578333Y-98436191D01*
X165578333Y-98436191D02*
X165530714Y-98531429D01*
X165530714Y-98531429D02*
X165530714Y-98674286D01*
X165530714Y-98674286D02*
X165578333Y-98769524D01*
X165578333Y-98769524D02*
X165625952Y-98817143D01*
X165625952Y-98817143D02*
X165721190Y-98864762D01*
X165721190Y-98864762D02*
X166006904Y-98864762D01*
X166006904Y-98864762D02*
X166102142Y-98817143D01*
X166102142Y-98817143D02*
X166149761Y-98769524D01*
X166149761Y-98769524D02*
X166197380Y-98674286D01*
X166197380Y-98674286D02*
X166197380Y-98531429D01*
X165530714Y-99721905D02*
X166340238Y-99721905D01*
X166340238Y-99721905D02*
X166435476Y-99674286D01*
X166435476Y-99674286D02*
X166483095Y-99626667D01*
X166483095Y-99626667D02*
X166530714Y-99531429D01*
X166530714Y-99531429D02*
X166530714Y-99388572D01*
X166530714Y-99388572D02*
X166483095Y-99293334D01*
X166149761Y-99721905D02*
X166197380Y-99626667D01*
X166197380Y-99626667D02*
X166197380Y-99436191D01*
X166197380Y-99436191D02*
X166149761Y-99340953D01*
X166149761Y-99340953D02*
X166102142Y-99293334D01*
X166102142Y-99293334D02*
X166006904Y-99245715D01*
X166006904Y-99245715D02*
X165721190Y-99245715D01*
X165721190Y-99245715D02*
X165625952Y-99293334D01*
X165625952Y-99293334D02*
X165578333Y-99340953D01*
X165578333Y-99340953D02*
X165530714Y-99436191D01*
X165530714Y-99436191D02*
X165530714Y-99626667D01*
X165530714Y-99626667D02*
X165578333Y-99721905D01*
X157483333Y-96827380D02*
X157483333Y-97541666D01*
X157483333Y-97541666D02*
X157530952Y-97684523D01*
X157530952Y-97684523D02*
X157626190Y-97779761D01*
X157626190Y-97779761D02*
X157769047Y-97827380D01*
X157769047Y-97827380D02*
X157864285Y-97827380D01*
X157102380Y-96827380D02*
X156483333Y-96827380D01*
X156483333Y-96827380D02*
X156816666Y-97208333D01*
X156816666Y-97208333D02*
X156673809Y-97208333D01*
X156673809Y-97208333D02*
X156578571Y-97255952D01*
X156578571Y-97255952D02*
X156530952Y-97303571D01*
X156530952Y-97303571D02*
X156483333Y-97398809D01*
X156483333Y-97398809D02*
X156483333Y-97636904D01*
X156483333Y-97636904D02*
X156530952Y-97732142D01*
X156530952Y-97732142D02*
X156578571Y-97779761D01*
X156578571Y-97779761D02*
X156673809Y-97827380D01*
X156673809Y-97827380D02*
X156959523Y-97827380D01*
X156959523Y-97827380D02*
X157054761Y-97779761D01*
X157054761Y-97779761D02*
X157102380Y-97732142D01*
%TO.C,J2*%
X138167142Y-52327380D02*
X138167142Y-51327380D01*
X138167142Y-51327380D02*
X137929047Y-51327380D01*
X137929047Y-51327380D02*
X137786190Y-51375000D01*
X137786190Y-51375000D02*
X137690952Y-51470238D01*
X137690952Y-51470238D02*
X137643333Y-51565476D01*
X137643333Y-51565476D02*
X137595714Y-51755952D01*
X137595714Y-51755952D02*
X137595714Y-51898809D01*
X137595714Y-51898809D02*
X137643333Y-52089285D01*
X137643333Y-52089285D02*
X137690952Y-52184523D01*
X137690952Y-52184523D02*
X137786190Y-52279761D01*
X137786190Y-52279761D02*
X137929047Y-52327380D01*
X137929047Y-52327380D02*
X138167142Y-52327380D01*
X137167142Y-52327380D02*
X137167142Y-51660714D01*
X137167142Y-51327380D02*
X137214761Y-51375000D01*
X137214761Y-51375000D02*
X137167142Y-51422619D01*
X137167142Y-51422619D02*
X137119523Y-51375000D01*
X137119523Y-51375000D02*
X137167142Y-51327380D01*
X137167142Y-51327380D02*
X137167142Y-51422619D01*
X136262381Y-51660714D02*
X136262381Y-52470238D01*
X136262381Y-52470238D02*
X136310000Y-52565476D01*
X136310000Y-52565476D02*
X136357619Y-52613095D01*
X136357619Y-52613095D02*
X136452857Y-52660714D01*
X136452857Y-52660714D02*
X136595714Y-52660714D01*
X136595714Y-52660714D02*
X136690952Y-52613095D01*
X136262381Y-52279761D02*
X136357619Y-52327380D01*
X136357619Y-52327380D02*
X136548095Y-52327380D01*
X136548095Y-52327380D02*
X136643333Y-52279761D01*
X136643333Y-52279761D02*
X136690952Y-52232142D01*
X136690952Y-52232142D02*
X136738571Y-52136904D01*
X136738571Y-52136904D02*
X136738571Y-51851190D01*
X136738571Y-51851190D02*
X136690952Y-51755952D01*
X136690952Y-51755952D02*
X136643333Y-51708333D01*
X136643333Y-51708333D02*
X136548095Y-51660714D01*
X136548095Y-51660714D02*
X136357619Y-51660714D01*
X136357619Y-51660714D02*
X136262381Y-51708333D01*
X135786190Y-52327380D02*
X135786190Y-51660714D01*
X135786190Y-51327380D02*
X135833809Y-51375000D01*
X135833809Y-51375000D02*
X135786190Y-51422619D01*
X135786190Y-51422619D02*
X135738571Y-51375000D01*
X135738571Y-51375000D02*
X135786190Y-51327380D01*
X135786190Y-51327380D02*
X135786190Y-51422619D01*
X135452857Y-51660714D02*
X135071905Y-51660714D01*
X135310000Y-51327380D02*
X135310000Y-52184523D01*
X135310000Y-52184523D02*
X135262381Y-52279761D01*
X135262381Y-52279761D02*
X135167143Y-52327380D01*
X135167143Y-52327380D02*
X135071905Y-52327380D01*
X134310000Y-52327380D02*
X134310000Y-51803571D01*
X134310000Y-51803571D02*
X134357619Y-51708333D01*
X134357619Y-51708333D02*
X134452857Y-51660714D01*
X134452857Y-51660714D02*
X134643333Y-51660714D01*
X134643333Y-51660714D02*
X134738571Y-51708333D01*
X134310000Y-52279761D02*
X134405238Y-52327380D01*
X134405238Y-52327380D02*
X134643333Y-52327380D01*
X134643333Y-52327380D02*
X134738571Y-52279761D01*
X134738571Y-52279761D02*
X134786190Y-52184523D01*
X134786190Y-52184523D02*
X134786190Y-52089285D01*
X134786190Y-52089285D02*
X134738571Y-51994047D01*
X134738571Y-51994047D02*
X134643333Y-51946428D01*
X134643333Y-51946428D02*
X134405238Y-51946428D01*
X134405238Y-51946428D02*
X134310000Y-51898809D01*
X133690952Y-52327380D02*
X133786190Y-52279761D01*
X133786190Y-52279761D02*
X133833809Y-52184523D01*
X133833809Y-52184523D02*
X133833809Y-51327380D01*
X132595714Y-51279761D02*
X133452856Y-52565476D01*
X132262380Y-52327380D02*
X132262380Y-51327380D01*
X132262380Y-51327380D02*
X131881428Y-51327380D01*
X131881428Y-51327380D02*
X131786190Y-51375000D01*
X131786190Y-51375000D02*
X131738571Y-51422619D01*
X131738571Y-51422619D02*
X131690952Y-51517857D01*
X131690952Y-51517857D02*
X131690952Y-51660714D01*
X131690952Y-51660714D02*
X131738571Y-51755952D01*
X131738571Y-51755952D02*
X131786190Y-51803571D01*
X131786190Y-51803571D02*
X131881428Y-51851190D01*
X131881428Y-51851190D02*
X132262380Y-51851190D01*
X131357618Y-51327380D02*
X131119523Y-52327380D01*
X131119523Y-52327380D02*
X130929047Y-51613095D01*
X130929047Y-51613095D02*
X130738571Y-52327380D01*
X130738571Y-52327380D02*
X130500476Y-51327380D01*
X130119523Y-52327380D02*
X130119523Y-51327380D01*
X130119523Y-51327380D02*
X129786190Y-52041666D01*
X129786190Y-52041666D02*
X129452857Y-51327380D01*
X129452857Y-51327380D02*
X129452857Y-52327380D01*
X130559333Y-48567380D02*
X130559333Y-49281666D01*
X130559333Y-49281666D02*
X130606952Y-49424523D01*
X130606952Y-49424523D02*
X130702190Y-49519761D01*
X130702190Y-49519761D02*
X130845047Y-49567380D01*
X130845047Y-49567380D02*
X130940285Y-49567380D01*
X130130761Y-48662619D02*
X130083142Y-48615000D01*
X130083142Y-48615000D02*
X129987904Y-48567380D01*
X129987904Y-48567380D02*
X129749809Y-48567380D01*
X129749809Y-48567380D02*
X129654571Y-48615000D01*
X129654571Y-48615000D02*
X129606952Y-48662619D01*
X129606952Y-48662619D02*
X129559333Y-48757857D01*
X129559333Y-48757857D02*
X129559333Y-48853095D01*
X129559333Y-48853095D02*
X129606952Y-48995952D01*
X129606952Y-48995952D02*
X130178380Y-49567380D01*
X130178380Y-49567380D02*
X129559333Y-49567380D01*
%TO.C,J4*%
X159037142Y-52457380D02*
X159037142Y-51457380D01*
X159037142Y-51457380D02*
X158799047Y-51457380D01*
X158799047Y-51457380D02*
X158656190Y-51505000D01*
X158656190Y-51505000D02*
X158560952Y-51600238D01*
X158560952Y-51600238D02*
X158513333Y-51695476D01*
X158513333Y-51695476D02*
X158465714Y-51885952D01*
X158465714Y-51885952D02*
X158465714Y-52028809D01*
X158465714Y-52028809D02*
X158513333Y-52219285D01*
X158513333Y-52219285D02*
X158560952Y-52314523D01*
X158560952Y-52314523D02*
X158656190Y-52409761D01*
X158656190Y-52409761D02*
X158799047Y-52457380D01*
X158799047Y-52457380D02*
X159037142Y-52457380D01*
X158037142Y-52457380D02*
X158037142Y-51790714D01*
X158037142Y-51457380D02*
X158084761Y-51505000D01*
X158084761Y-51505000D02*
X158037142Y-51552619D01*
X158037142Y-51552619D02*
X157989523Y-51505000D01*
X157989523Y-51505000D02*
X158037142Y-51457380D01*
X158037142Y-51457380D02*
X158037142Y-51552619D01*
X157132381Y-51790714D02*
X157132381Y-52600238D01*
X157132381Y-52600238D02*
X157180000Y-52695476D01*
X157180000Y-52695476D02*
X157227619Y-52743095D01*
X157227619Y-52743095D02*
X157322857Y-52790714D01*
X157322857Y-52790714D02*
X157465714Y-52790714D01*
X157465714Y-52790714D02*
X157560952Y-52743095D01*
X157132381Y-52409761D02*
X157227619Y-52457380D01*
X157227619Y-52457380D02*
X157418095Y-52457380D01*
X157418095Y-52457380D02*
X157513333Y-52409761D01*
X157513333Y-52409761D02*
X157560952Y-52362142D01*
X157560952Y-52362142D02*
X157608571Y-52266904D01*
X157608571Y-52266904D02*
X157608571Y-51981190D01*
X157608571Y-51981190D02*
X157560952Y-51885952D01*
X157560952Y-51885952D02*
X157513333Y-51838333D01*
X157513333Y-51838333D02*
X157418095Y-51790714D01*
X157418095Y-51790714D02*
X157227619Y-51790714D01*
X157227619Y-51790714D02*
X157132381Y-51838333D01*
X156656190Y-52457380D02*
X156656190Y-51790714D01*
X156656190Y-51457380D02*
X156703809Y-51505000D01*
X156703809Y-51505000D02*
X156656190Y-51552619D01*
X156656190Y-51552619D02*
X156608571Y-51505000D01*
X156608571Y-51505000D02*
X156656190Y-51457380D01*
X156656190Y-51457380D02*
X156656190Y-51552619D01*
X156322857Y-51790714D02*
X155941905Y-51790714D01*
X156180000Y-51457380D02*
X156180000Y-52314523D01*
X156180000Y-52314523D02*
X156132381Y-52409761D01*
X156132381Y-52409761D02*
X156037143Y-52457380D01*
X156037143Y-52457380D02*
X155941905Y-52457380D01*
X155180000Y-52457380D02*
X155180000Y-51933571D01*
X155180000Y-51933571D02*
X155227619Y-51838333D01*
X155227619Y-51838333D02*
X155322857Y-51790714D01*
X155322857Y-51790714D02*
X155513333Y-51790714D01*
X155513333Y-51790714D02*
X155608571Y-51838333D01*
X155180000Y-52409761D02*
X155275238Y-52457380D01*
X155275238Y-52457380D02*
X155513333Y-52457380D01*
X155513333Y-52457380D02*
X155608571Y-52409761D01*
X155608571Y-52409761D02*
X155656190Y-52314523D01*
X155656190Y-52314523D02*
X155656190Y-52219285D01*
X155656190Y-52219285D02*
X155608571Y-52124047D01*
X155608571Y-52124047D02*
X155513333Y-52076428D01*
X155513333Y-52076428D02*
X155275238Y-52076428D01*
X155275238Y-52076428D02*
X155180000Y-52028809D01*
X154560952Y-52457380D02*
X154656190Y-52409761D01*
X154656190Y-52409761D02*
X154703809Y-52314523D01*
X154703809Y-52314523D02*
X154703809Y-51457380D01*
X153465714Y-51409761D02*
X154322856Y-52695476D01*
X153132380Y-52457380D02*
X153132380Y-51457380D01*
X153132380Y-51457380D02*
X152751428Y-51457380D01*
X152751428Y-51457380D02*
X152656190Y-51505000D01*
X152656190Y-51505000D02*
X152608571Y-51552619D01*
X152608571Y-51552619D02*
X152560952Y-51647857D01*
X152560952Y-51647857D02*
X152560952Y-51790714D01*
X152560952Y-51790714D02*
X152608571Y-51885952D01*
X152608571Y-51885952D02*
X152656190Y-51933571D01*
X152656190Y-51933571D02*
X152751428Y-51981190D01*
X152751428Y-51981190D02*
X153132380Y-51981190D01*
X152227618Y-51457380D02*
X151989523Y-52457380D01*
X151989523Y-52457380D02*
X151799047Y-51743095D01*
X151799047Y-51743095D02*
X151608571Y-52457380D01*
X151608571Y-52457380D02*
X151370476Y-51457380D01*
X150989523Y-52457380D02*
X150989523Y-51457380D01*
X150989523Y-51457380D02*
X150656190Y-52171666D01*
X150656190Y-52171666D02*
X150322857Y-51457380D01*
X150322857Y-51457380D02*
X150322857Y-52457380D01*
X148483333Y-51367380D02*
X148483333Y-52081666D01*
X148483333Y-52081666D02*
X148530952Y-52224523D01*
X148530952Y-52224523D02*
X148626190Y-52319761D01*
X148626190Y-52319761D02*
X148769047Y-52367380D01*
X148769047Y-52367380D02*
X148864285Y-52367380D01*
X147578571Y-51700714D02*
X147578571Y-52367380D01*
X147816666Y-51319761D02*
X148054761Y-52034047D01*
X148054761Y-52034047D02*
X147435714Y-52034047D01*
%TO.C,J1*%
X148417380Y-95483809D02*
X147417380Y-95483809D01*
X147417380Y-95483809D02*
X147417380Y-95864761D01*
X147417380Y-95864761D02*
X147465000Y-95959999D01*
X147465000Y-95959999D02*
X147512619Y-96007618D01*
X147512619Y-96007618D02*
X147607857Y-96055237D01*
X147607857Y-96055237D02*
X147750714Y-96055237D01*
X147750714Y-96055237D02*
X147845952Y-96007618D01*
X147845952Y-96007618D02*
X147893571Y-95959999D01*
X147893571Y-95959999D02*
X147941190Y-95864761D01*
X147941190Y-95864761D02*
X147941190Y-95483809D01*
X148417380Y-96626666D02*
X148369761Y-96531428D01*
X148369761Y-96531428D02*
X148322142Y-96483809D01*
X148322142Y-96483809D02*
X148226904Y-96436190D01*
X148226904Y-96436190D02*
X147941190Y-96436190D01*
X147941190Y-96436190D02*
X147845952Y-96483809D01*
X147845952Y-96483809D02*
X147798333Y-96531428D01*
X147798333Y-96531428D02*
X147750714Y-96626666D01*
X147750714Y-96626666D02*
X147750714Y-96769523D01*
X147750714Y-96769523D02*
X147798333Y-96864761D01*
X147798333Y-96864761D02*
X147845952Y-96912380D01*
X147845952Y-96912380D02*
X147941190Y-96959999D01*
X147941190Y-96959999D02*
X148226904Y-96959999D01*
X148226904Y-96959999D02*
X148322142Y-96912380D01*
X148322142Y-96912380D02*
X148369761Y-96864761D01*
X148369761Y-96864761D02*
X148417380Y-96769523D01*
X148417380Y-96769523D02*
X148417380Y-96626666D01*
X147750714Y-97293333D02*
X148417380Y-97483809D01*
X148417380Y-97483809D02*
X147941190Y-97674285D01*
X147941190Y-97674285D02*
X148417380Y-97864761D01*
X148417380Y-97864761D02*
X147750714Y-98055237D01*
X148369761Y-98817142D02*
X148417380Y-98721904D01*
X148417380Y-98721904D02*
X148417380Y-98531428D01*
X148417380Y-98531428D02*
X148369761Y-98436190D01*
X148369761Y-98436190D02*
X148274523Y-98388571D01*
X148274523Y-98388571D02*
X147893571Y-98388571D01*
X147893571Y-98388571D02*
X147798333Y-98436190D01*
X147798333Y-98436190D02*
X147750714Y-98531428D01*
X147750714Y-98531428D02*
X147750714Y-98721904D01*
X147750714Y-98721904D02*
X147798333Y-98817142D01*
X147798333Y-98817142D02*
X147893571Y-98864761D01*
X147893571Y-98864761D02*
X147988809Y-98864761D01*
X147988809Y-98864761D02*
X148084047Y-98388571D01*
X148417380Y-99293333D02*
X147750714Y-99293333D01*
X147941190Y-99293333D02*
X147845952Y-99340952D01*
X147845952Y-99340952D02*
X147798333Y-99388571D01*
X147798333Y-99388571D02*
X147750714Y-99483809D01*
X147750714Y-99483809D02*
X147750714Y-99579047D01*
X137163333Y-96827380D02*
X137163333Y-97541666D01*
X137163333Y-97541666D02*
X137210952Y-97684523D01*
X137210952Y-97684523D02*
X137306190Y-97779761D01*
X137306190Y-97779761D02*
X137449047Y-97827380D01*
X137449047Y-97827380D02*
X137544285Y-97827380D01*
X136163333Y-97827380D02*
X136734761Y-97827380D01*
X136449047Y-97827380D02*
X136449047Y-96827380D01*
X136449047Y-96827380D02*
X136544285Y-96970238D01*
X136544285Y-96970238D02*
X136639523Y-97065476D01*
X136639523Y-97065476D02*
X136734761Y-97113095D01*
D11*
%TO.C,J3*%
X164770000Y-96190000D02*
X150165000Y-96190000D01*
X150165000Y-96190000D02*
X149530000Y-96825000D01*
X149530000Y-96825000D02*
X149530000Y-98730000D01*
X164770000Y-98730000D02*
X164770000Y-96190000D01*
X149530000Y-98730000D02*
X164770000Y-98730000D01*
%TO.C,J2*%
X142926000Y-47930000D02*
X118161000Y-47930000D01*
X118161000Y-47930000D02*
X117526000Y-48565000D01*
X117526000Y-48565000D02*
X117526000Y-50470000D01*
X142926000Y-50470000D02*
X142926000Y-47930000D01*
X117526000Y-50470000D02*
X142926000Y-50470000D01*
%TO.C,J4*%
X163500000Y-47930000D02*
X145085000Y-47930000D01*
X145085000Y-47930000D02*
X144450000Y-48565000D01*
X144450000Y-48565000D02*
X144450000Y-50470000D01*
X164770000Y-50470000D02*
X164770000Y-49200000D01*
X144450000Y-50470000D02*
X164770000Y-50470000D01*
%TO.C,J1*%
X146990000Y-96190000D02*
X127305000Y-96190000D01*
X127305000Y-96190000D02*
X126670000Y-96825000D01*
X126670000Y-96825000D02*
X126670000Y-98730000D01*
X146990000Y-98730000D02*
X146990000Y-96190000D01*
X126670000Y-98730000D02*
X146990000Y-98730000D01*
%TD*%
M02*
