%TF.GenerationSoftware,KiCad,Pcbnew,(7.0.0-0)*%
%TF.CreationDate,2023-08-03T18:37:04+02:00*%
%TF.ProjectId,flipperbrain-shield,666c6970-7065-4726-9272-61696e2d7368,rev?*%
%TF.SameCoordinates,Original*%
%TF.FileFunction,Copper,L1,Top*%
%TF.FilePolarity,Positive*%
%FSLAX46Y46*%
G04 Gerber Fmt 4.6, Leading zero omitted, Abs format (unit mm)*
G04 Created by KiCad (PCBNEW (7.0.0-0)) date 2023-08-03 18:37:04*
%MOMM*%
%LPD*%
G01*
G04 APERTURE LIST*
%TA.AperFunction,ComponentPad*%
%ADD10C,2.000000*%
%TD*%
%TA.AperFunction,ComponentPad*%
%ADD11C,1.800000*%
%TD*%
%TA.AperFunction,ComponentPad*%
%ADD12R,1.800000X1.800000*%
%TD*%
%TA.AperFunction,ComponentPad*%
%ADD13O,1.600000X1.600000*%
%TD*%
%TA.AperFunction,ComponentPad*%
%ADD14R,1.600000X1.600000*%
%TD*%
%TA.AperFunction,ComponentPad*%
%ADD15R,2.400000X2.400000*%
%TD*%
%TA.AperFunction,ComponentPad*%
%ADD16C,2.400000*%
%TD*%
%TA.AperFunction,ComponentPad*%
%ADD17R,1.700000X1.700000*%
%TD*%
%TA.AperFunction,ComponentPad*%
%ADD18O,1.700000X1.700000*%
%TD*%
%TA.AperFunction,Conductor*%
%ADD19C,0.250000*%
%TD*%
G04 APERTURE END LIST*
D10*
%TO.P,SW8,1,1*%
%TO.N,GND*%
X113552000Y-62410000D03*
X113552000Y-55910000D03*
%TO.P,SW8,2,2*%
%TO.N,TD8*%
X118052000Y-62410000D03*
X118052000Y-55910000D03*
%TD*%
%TO.P,SW11,1,1*%
%TO.N,GND*%
X140633000Y-62410000D03*
X140633000Y-55910000D03*
%TO.P,SW11,2,2*%
%TO.N,TD11*%
X145133000Y-62410000D03*
X145133000Y-55910000D03*
%TD*%
%TO.P,SW13,1,1*%
%TO.N,GND*%
X158687000Y-62410000D03*
X158687000Y-55910000D03*
%TO.P,SW13,2,2*%
%TO.N,TD13*%
X163187000Y-62410000D03*
X163187000Y-55910000D03*
%TD*%
D11*
%TO.P,D6,2,A*%
%TO.N,A5*%
X162430000Y-77195000D03*
D12*
%TO.P,D6,1,K*%
%TO.N,Net-(D6-K)*%
X159889999Y-77194999D03*
%TD*%
D10*
%TO.P,SW10,1,1*%
%TO.N,GND*%
X131606000Y-62410000D03*
X131606000Y-55910000D03*
%TO.P,SW10,2,2*%
%TO.N,TD10*%
X136106000Y-62410000D03*
X136106000Y-55910000D03*
%TD*%
D12*
%TO.P,D2,1,K*%
%TO.N,Net-(D2-K)*%
X123341999Y-77194999D03*
D11*
%TO.P,D2,2,A*%
%TO.N,A1*%
X125882000Y-77195000D03*
%TD*%
D12*
%TO.P,D3,1,K*%
%TO.N,Net-(D3-K)*%
X132478999Y-77194999D03*
D11*
%TO.P,D3,2,A*%
%TO.N,A2*%
X135019000Y-77195000D03*
%TD*%
D10*
%TO.P,SW9,1,1*%
%TO.N,GND*%
X122579000Y-62410000D03*
X122579000Y-55910000D03*
%TO.P,SW9,2,2*%
%TO.N,TD9*%
X127079000Y-62410000D03*
X127079000Y-55910000D03*
%TD*%
D12*
%TO.P,D1,1,K*%
%TO.N,Net-(D1-K)*%
X114204999Y-77194999D03*
D11*
%TO.P,D1,2,A*%
%TO.N,A0*%
X116745000Y-77195000D03*
%TD*%
D13*
%TO.P,RN1,9,R8*%
%TO.N,unconnected-(RN1-R8-Pad9)*%
X142369999Y-86867999D03*
%TO.P,RN1,8,R7*%
%TO.N,unconnected-(RN1-R7-Pad8)*%
X144909999Y-86867999D03*
%TO.P,RN1,7,R6*%
%TO.N,Net-(D1-K)*%
X147449999Y-86867999D03*
%TO.P,RN1,6,R5*%
%TO.N,Net-(D2-K)*%
X149989999Y-86867999D03*
%TO.P,RN1,5,R4*%
%TO.N,Net-(D3-K)*%
X152529999Y-86867999D03*
%TO.P,RN1,4,R3*%
%TO.N,Net-(D4-K)*%
X155069999Y-86867999D03*
%TO.P,RN1,3,R2*%
%TO.N,Net-(D5-K)*%
X157609999Y-86867999D03*
%TO.P,RN1,2,R1*%
%TO.N,Net-(D6-K)*%
X160149999Y-86867999D03*
D14*
%TO.P,RN1,1,common*%
%TO.N,GND*%
X162689999Y-86867999D03*
%TD*%
D10*
%TO.P,SW12,1,1*%
%TO.N,GND*%
X149660000Y-62410000D03*
X149660000Y-55910000D03*
%TO.P,SW12,2,2*%
%TO.N,TD12*%
X154160000Y-62410000D03*
X154160000Y-55910000D03*
%TD*%
D15*
%TO.P,J6,1,Pin_1*%
%TO.N,TD8*%
X105206999Y-49245999D03*
D16*
%TO.P,J6,2,Pin_2*%
%TO.N,TD9*%
X105207000Y-52746000D03*
%TO.P,J6,3,Pin_3*%
%TO.N,TD10*%
X105207000Y-56246000D03*
%TO.P,J6,4,Pin_4*%
%TO.N,TD11*%
X105207000Y-59746000D03*
%TO.P,J6,5,Pin_5*%
%TO.N,TD12*%
X105207000Y-63246000D03*
%TO.P,J6,6,Pin_6*%
%TO.N,TD13*%
X105207000Y-66746000D03*
%TD*%
D15*
%TO.P,J5,1,Pin_1*%
%TO.N,A0*%
X105206999Y-79799999D03*
D16*
%TO.P,J5,2,Pin_2*%
%TO.N,A1*%
X105207000Y-83300000D03*
%TO.P,J5,3,Pin_3*%
%TO.N,A2*%
X105207000Y-86800000D03*
%TO.P,J5,4,Pin_4*%
%TO.N,A3*%
X105207000Y-90300000D03*
%TO.P,J5,5,Pin_5*%
%TO.N,A4*%
X105207000Y-93800000D03*
%TO.P,J5,6,Pin_6*%
%TO.N,A5*%
X105207000Y-97300000D03*
%TD*%
D12*
%TO.P,D4,1,K*%
%TO.N,Net-(D4-K)*%
X141615999Y-77194999D03*
D11*
%TO.P,D4,2,A*%
%TO.N,A3*%
X144156000Y-77195000D03*
%TD*%
D12*
%TO.P,D5,1,K*%
%TO.N,Net-(D5-K)*%
X150752999Y-77194999D03*
D11*
%TO.P,D5,2,A*%
%TO.N,A4*%
X153293000Y-77195000D03*
%TD*%
D17*
%TO.P,J3,1,Pin_1*%
%TO.N,A0*%
X150799999Y-97459999D03*
D18*
%TO.P,J3,2,Pin_2*%
%TO.N,A1*%
X153339999Y-97459999D03*
%TO.P,J3,3,Pin_3*%
%TO.N,A2*%
X155879999Y-97459999D03*
%TO.P,J3,4,Pin_4*%
%TO.N,A3*%
X158419999Y-97459999D03*
%TO.P,J3,5,Pin_5*%
%TO.N,A4*%
X160959999Y-97459999D03*
%TO.P,J3,6,Pin_6*%
%TO.N,A5*%
X163499999Y-97459999D03*
%TD*%
D17*
%TO.P,J2,1,Pin_1*%
%TO.N,A5*%
X118795999Y-49199999D03*
D18*
%TO.P,J2,2,Pin_2*%
%TO.N,A4*%
X121335999Y-49199999D03*
%TO.P,J2,3,Pin_3*%
%TO.N,/AREF*%
X123875999Y-49199999D03*
%TO.P,J2,4,Pin_4*%
%TO.N,GND*%
X126415999Y-49199999D03*
%TO.P,J2,5,Pin_5*%
%TO.N,TD13*%
X128955999Y-49199999D03*
%TO.P,J2,6,Pin_6*%
%TO.N,TD12*%
X131495999Y-49199999D03*
%TO.P,J2,7,Pin_7*%
%TO.N,TD11*%
X134035999Y-49199999D03*
%TO.P,J2,8,Pin_8*%
%TO.N,TD10*%
X136575999Y-49199999D03*
%TO.P,J2,9,Pin_9*%
%TO.N,TD9*%
X139115999Y-49199999D03*
%TO.P,J2,10,Pin_10*%
%TO.N,TD8*%
X141655999Y-49199999D03*
%TD*%
D17*
%TO.P,J4,1,Pin_1*%
%TO.N,/7*%
X145719999Y-49199999D03*
D18*
%TO.P,J4,2,Pin_2*%
%TO.N,/\u002A6*%
X148259999Y-49199999D03*
%TO.P,J4,3,Pin_3*%
%TO.N,/\u002A5*%
X150799999Y-49199999D03*
%TO.P,J4,4,Pin_4*%
%TO.N,/4*%
X153339999Y-49199999D03*
%TO.P,J4,5,Pin_5*%
%TO.N,/\u002A3*%
X155879999Y-49199999D03*
%TO.P,J4,6,Pin_6*%
%TO.N,/2*%
X158419999Y-49199999D03*
%TO.P,J4,7,Pin_7*%
%TO.N,/TX{slash}1*%
X160959999Y-49199999D03*
%TO.P,J4,8,Pin_8*%
%TO.N,/RX{slash}0*%
X163499999Y-49199999D03*
%TD*%
D17*
%TO.P,J1,1,Pin_1*%
%TO.N,unconnected-(J1-Pin_1-Pad1)*%
X127939999Y-97459999D03*
D18*
%TO.P,J1,2,Pin_2*%
%TO.N,/IOREF*%
X130479999Y-97459999D03*
%TO.P,J1,3,Pin_3*%
%TO.N,/~{RESET}*%
X133019999Y-97459999D03*
%TO.P,J1,4,Pin_4*%
%TO.N,+3V3*%
X135559999Y-97459999D03*
%TO.P,J1,5,Pin_5*%
%TO.N,+5V*%
X138099999Y-97459999D03*
%TO.P,J1,6,Pin_6*%
%TO.N,GND*%
X140639999Y-97459999D03*
%TO.P,J1,7,Pin_7*%
X143179999Y-97459999D03*
%TO.P,J1,8,Pin_8*%
%TO.N,VCC*%
X145719999Y-97459999D03*
%TD*%
D19*
%TO.N,Net-(D5-K)*%
X157610000Y-85277100D02*
X150753000Y-78420100D01*
X157610000Y-86868000D02*
X157610000Y-85277100D01*
X150753000Y-77195000D02*
X150753000Y-78420100D01*
%TO.N,Net-(D3-K)*%
X133704100Y-77654500D02*
X133704100Y-77195000D01*
X134469700Y-78420100D02*
X133704100Y-77654500D01*
X143238300Y-78420100D02*
X134469700Y-78420100D01*
X151404900Y-86586700D02*
X143238300Y-78420100D01*
X151404900Y-86868000D02*
X151404900Y-86586700D01*
X152530000Y-86868000D02*
X151404900Y-86868000D01*
X132479000Y-77195000D02*
X133704100Y-77195000D01*
%TO.N,Net-(D2-K)*%
X149990000Y-86868000D02*
X148864900Y-86868000D01*
X123342000Y-77195000D02*
X124567100Y-77195000D01*
X124567100Y-77688800D02*
X124567100Y-77195000D01*
X130820800Y-83942500D02*
X124567100Y-77688800D01*
X146176400Y-83942500D02*
X130820800Y-83942500D01*
X148864900Y-86631000D02*
X146176400Y-83942500D01*
X148864900Y-86868000D02*
X148864900Y-86631000D01*
%TO.N,Net-(D1-K)*%
X115430100Y-76735500D02*
X115430100Y-77195000D01*
X116195700Y-75969900D02*
X115430100Y-76735500D01*
X117252400Y-75969900D02*
X116195700Y-75969900D01*
X127025400Y-85742900D02*
X117252400Y-75969900D01*
X145481200Y-85742900D02*
X127025400Y-85742900D01*
X146324900Y-86586600D02*
X145481200Y-85742900D01*
X146324900Y-86868000D02*
X146324900Y-86586600D01*
X147450000Y-86868000D02*
X146324900Y-86868000D01*
X114205000Y-77195000D02*
X115430100Y-77195000D01*
%TO.N,TD8*%
X141656000Y-49200000D02*
X140480900Y-49200000D01*
X119413200Y-57271200D02*
X118052000Y-55910000D01*
X132776900Y-57271200D02*
X119413200Y-57271200D01*
X140480900Y-49567200D02*
X132776900Y-57271200D01*
X140480900Y-49200000D02*
X140480900Y-49567200D01*
X105016200Y-50771100D02*
X105207000Y-50771100D01*
X103681900Y-52105400D02*
X105016200Y-50771100D01*
X103681900Y-53403100D02*
X103681900Y-52105400D01*
X104774800Y-54496000D02*
X103681900Y-53403100D01*
X116638000Y-54496000D02*
X104774800Y-54496000D01*
X118052000Y-55910000D02*
X116638000Y-54496000D01*
X105207000Y-49246000D02*
X105207000Y-50771100D01*
%TO.N,TD9*%
X132613900Y-50375100D02*
X127079000Y-55910000D01*
X137133100Y-50375100D02*
X132613900Y-50375100D01*
X137940900Y-49567300D02*
X137133100Y-50375100D01*
X137940900Y-49200000D02*
X137940900Y-49567300D01*
X139116000Y-49200000D02*
X137940900Y-49200000D01*
X123915000Y-52746000D02*
X127079000Y-55910000D01*
X105207000Y-52746000D02*
X123915000Y-52746000D01*
%TO.N,TD10*%
X133844900Y-60148900D02*
X136106000Y-62410000D01*
X133844900Y-58171100D02*
X133844900Y-60148900D01*
X107132100Y-58171100D02*
X133844900Y-58171100D01*
X105207000Y-56246000D02*
X107132100Y-58171100D01*
X133844900Y-58171100D02*
X136106000Y-55910000D01*
%TO.N,TD11*%
X109212200Y-63751200D02*
X105207000Y-59746000D01*
X143791800Y-63751200D02*
X109212200Y-63751200D01*
X145133000Y-62410000D02*
X143791800Y-63751200D01*
%TO.N,TD12*%
X151861100Y-53611100D02*
X154160000Y-55910000D01*
X147766200Y-53611100D02*
X151861100Y-53611100D01*
X142162800Y-48007700D02*
X147766200Y-53611100D01*
X133496200Y-48007700D02*
X142162800Y-48007700D01*
X132671100Y-48832800D02*
X133496200Y-48007700D01*
X132671100Y-49200000D02*
X132671100Y-48832800D01*
X131496000Y-49200000D02*
X132671100Y-49200000D01*
%TO.N,TD13*%
X159592400Y-52315400D02*
X163187000Y-55910000D01*
X149683500Y-52315400D02*
X159592400Y-52315400D01*
X146895200Y-49527100D02*
X149683500Y-52315400D01*
X146895200Y-48147800D02*
X146895200Y-49527100D01*
X146281400Y-47534000D02*
X146895200Y-48147800D01*
X131429900Y-47534000D02*
X146281400Y-47534000D01*
X130131100Y-48832800D02*
X131429900Y-47534000D01*
X130131100Y-49200000D02*
X130131100Y-48832800D01*
X128956000Y-49200000D02*
X130131100Y-49200000D01*
%TO.N,A1*%
X124206700Y-75519700D02*
X125882000Y-77195000D01*
X106617400Y-75519700D02*
X124206700Y-75519700D01*
X103681800Y-78455300D02*
X106617400Y-75519700D01*
X103681800Y-81774800D02*
X103681800Y-78455300D01*
X105207000Y-83300000D02*
X103681800Y-81774800D01*
%TO.N,A2*%
X132893500Y-75069500D02*
X135019000Y-77195000D01*
X106424200Y-75069500D02*
X132893500Y-75069500D01*
X103217200Y-78276500D02*
X106424200Y-75069500D01*
X103217200Y-84810200D02*
X103217200Y-78276500D01*
X105207000Y-86800000D02*
X103217200Y-84810200D01*
%TO.N,A5*%
X107296200Y-99389200D02*
X105207000Y-97300000D01*
X160762900Y-99389200D02*
X107296200Y-99389200D01*
X162324900Y-97827200D02*
X160762900Y-99389200D01*
X162324900Y-97460000D02*
X162324900Y-97827200D01*
X163500000Y-97460000D02*
X162324900Y-97460000D01*
%TO.N,A0*%
X150800000Y-97460000D02*
X149624900Y-97460000D01*
X105207000Y-79800000D02*
X106732100Y-79800000D01*
X116745000Y-79800000D02*
X106732100Y-79800000D01*
X116745000Y-79800000D02*
X116745000Y-77195000D01*
X131783800Y-94838800D02*
X116745000Y-79800000D01*
X147003700Y-94838800D02*
X131783800Y-94838800D01*
X149624900Y-97460000D02*
X147003700Y-94838800D01*
%TO.N,GND*%
X114877200Y-61084800D02*
X113552000Y-62410000D01*
X121253800Y-61084800D02*
X114877200Y-61084800D01*
X122579000Y-62410000D02*
X121253800Y-61084800D01*
X148331200Y-54581200D02*
X149660000Y-55910000D01*
X141961800Y-54581200D02*
X148331200Y-54581200D01*
X140633000Y-55910000D02*
X141961800Y-54581200D01*
X151006400Y-57256400D02*
X151006400Y-61063600D01*
X149660000Y-55910000D02*
X151006400Y-57256400D01*
X149660000Y-62410000D02*
X151006400Y-61063600D01*
X157340600Y-57256400D02*
X158687000Y-55910000D01*
X157340600Y-61063600D02*
X157340600Y-57256400D01*
X151006400Y-61063600D02*
X157340600Y-61063600D01*
X157340600Y-61063600D02*
X158687000Y-62410000D01*
X161115200Y-84168100D02*
X162690000Y-85742900D01*
X161115200Y-64838200D02*
X161115200Y-84168100D01*
X158687000Y-62410000D02*
X161115200Y-64838200D01*
X162690000Y-86868000D02*
X162690000Y-85742900D01*
X162690000Y-86868000D02*
X161564900Y-86868000D01*
X140640000Y-97460000D02*
X143180000Y-97460000D01*
X161564900Y-87508600D02*
X161564900Y-86868000D01*
X151975200Y-97098300D02*
X161564900Y-87508600D01*
X151975200Y-98491000D02*
X151975200Y-97098300D01*
X151831000Y-98635200D02*
X151975200Y-98491000D01*
X145163100Y-98635200D02*
X151831000Y-98635200D01*
X144355100Y-97827200D02*
X145163100Y-98635200D01*
X144355100Y-97460000D02*
X144355100Y-97827200D01*
X143180000Y-97460000D02*
X144355100Y-97460000D01*
%TD*%
M02*
