M48
; DRILL file {KiCad (7.0.0-0)} date Thursday, 03 August 2023 at 18:37:12
; FORMAT={-:-/ absolute / inch / decimal}
; #@! TF.CreationDate,2023-08-03T18:37:12+02:00
; #@! TF.GenerationSoftware,Kicad,Pcbnew,(7.0.0-0)
; #@! TF.FileFunction,Plated,1,2,PTH
FMAT,2
INCH
; #@! TA.AperFunction,Plated,PTH,ComponentDrill
T1C0.0315
; #@! TA.AperFunction,Plated,PTH,ComponentDrill
T2C0.0354
; #@! TA.AperFunction,Plated,PTH,ComponentDrill
T3C0.0394
; #@! TA.AperFunction,Plated,PTH,ComponentDrill
T4C0.0433
; #@! TA.AperFunction,Plated,PTH,ComponentDrill
T5C0.0472
%
G90
G05
T1
X5.6051Y-3.42
X5.7051Y-3.42
X5.8051Y-3.42
X5.9051Y-3.42
X6.0051Y-3.42
X6.1051Y-3.42
X6.2051Y-3.42
X6.3051Y-3.42
X6.4051Y-3.42
T2
X4.4963Y-3.0392
X4.5963Y-3.0392
X4.856Y-3.0392
X4.956Y-3.0392
X5.2157Y-3.0392
X5.3157Y-3.0392
X5.5754Y-3.0392
X5.6754Y-3.0392
X5.9352Y-3.0392
X6.0352Y-3.0392
X6.2949Y-3.0392
X6.3949Y-3.0392
T3
X4.677Y-1.937
X4.777Y-1.937
X4.877Y-1.937
X4.977Y-1.937
X5.037Y-3.837
X5.077Y-1.937
X5.137Y-3.837
X5.177Y-1.937
X5.237Y-3.837
X5.277Y-1.937
X5.337Y-3.837
X5.377Y-1.937
X5.437Y-3.837
X5.477Y-1.937
X5.537Y-3.837
X5.577Y-1.937
X5.637Y-3.837
X5.737Y-1.937
X5.737Y-3.837
X5.837Y-1.937
X5.937Y-1.937
X5.937Y-3.837
X6.037Y-1.937
X6.037Y-3.837
X6.137Y-1.937
X6.137Y-3.837
X6.237Y-1.937
X6.237Y-3.837
X6.337Y-1.937
X6.337Y-3.837
X6.437Y-1.937
X6.437Y-3.837
T4
X4.4706Y-2.2012
X4.4706Y-2.4571
X4.6477Y-2.2012
X4.6477Y-2.4571
X4.8259Y-2.2012
X4.8259Y-2.4571
X5.0031Y-2.2012
X5.0031Y-2.4571
X5.1813Y-2.2012
X5.1813Y-2.4571
X5.3585Y-2.2012
X5.3585Y-2.4571
X5.5367Y-2.2012
X5.5367Y-2.4571
X5.7139Y-2.2012
X5.7139Y-2.4571
X5.8921Y-2.2012
X5.8921Y-2.4571
X6.0693Y-2.2012
X6.0693Y-2.4571
X6.2475Y-2.2012
X6.2475Y-2.4571
X6.4247Y-2.2012
X6.4247Y-2.4571
T5
X4.142Y-1.9388
X4.142Y-2.0766
X4.142Y-2.2144
X4.142Y-2.3522
X4.142Y-2.49
X4.142Y-2.6278
X4.142Y-3.1417
X4.142Y-3.2795
X4.142Y-3.4173
X4.142Y-3.5551
X4.142Y-3.6929
X4.142Y-3.8307
T0
M30
