%TF.GenerationSoftware,KiCad,Pcbnew,(7.0.0-0)*%
%TF.CreationDate,2023-07-27T22:16:26+02:00*%
%TF.ProjectId,flipperbrain-shield,666c6970-7065-4726-9272-61696e2d7368,rev?*%
%TF.SameCoordinates,Original*%
%TF.FileFunction,Copper,L1,Top*%
%TF.FilePolarity,Positive*%
%FSLAX46Y46*%
G04 Gerber Fmt 4.6, Leading zero omitted, Abs format (unit mm)*
G04 Created by KiCad (PCBNEW (7.0.0-0)) date 2023-07-27 22:16:26*
%MOMM*%
%LPD*%
G01*
G04 APERTURE LIST*
%TA.AperFunction,ComponentPad*%
%ADD10C,2.000000*%
%TD*%
%TA.AperFunction,ComponentPad*%
%ADD11C,1.600000*%
%TD*%
%TA.AperFunction,ComponentPad*%
%ADD12O,1.600000X1.600000*%
%TD*%
%TA.AperFunction,ComponentPad*%
%ADD13R,1.800000X1.800000*%
%TD*%
%TA.AperFunction,ComponentPad*%
%ADD14C,1.800000*%
%TD*%
%TA.AperFunction,ComponentPad*%
%ADD15R,2.400000X2.400000*%
%TD*%
%TA.AperFunction,ComponentPad*%
%ADD16C,2.400000*%
%TD*%
%TA.AperFunction,ComponentPad*%
%ADD17R,1.700000X1.700000*%
%TD*%
%TA.AperFunction,ComponentPad*%
%ADD18O,1.700000X1.700000*%
%TD*%
%TA.AperFunction,Conductor*%
%ADD19C,0.250000*%
%TD*%
G04 APERTURE END LIST*
D10*
%TO.P,SW8,1,1*%
%TO.N,GND*%
X113552000Y-62410000D03*
X113552000Y-55910000D03*
%TO.P,SW8,2,2*%
%TO.N,TD8*%
X118052000Y-62410000D03*
X118052000Y-55910000D03*
%TD*%
%TO.P,SW11,1,1*%
%TO.N,GND*%
X140633000Y-62410000D03*
X140633000Y-55910000D03*
%TO.P,SW11,2,2*%
%TO.N,TD11*%
X145133000Y-62410000D03*
X145133000Y-55910000D03*
%TD*%
%TO.P,SW13,1,1*%
%TO.N,GND*%
X158687000Y-62410000D03*
X158687000Y-55910000D03*
%TO.P,SW13,2,2*%
%TO.N,TD13*%
X163187000Y-62410000D03*
X163187000Y-55910000D03*
%TD*%
D11*
%TO.P,R1,1*%
%TO.N,A0*%
X112805000Y-89525000D03*
D12*
%TO.P,R1,2*%
%TO.N,Net-(D1-A)*%
X122964999Y-89524999D03*
%TD*%
D13*
%TO.P,D6,1,K*%
%TO.N,GND*%
X159889999Y-77194999D03*
D14*
%TO.P,D6,2,A*%
%TO.N,Net-(D6-A)*%
X162430000Y-77195000D03*
%TD*%
D10*
%TO.P,SW10,1,1*%
%TO.N,GND*%
X131606000Y-62410000D03*
X131606000Y-55910000D03*
%TO.P,SW10,2,2*%
%TO.N,TD10*%
X136106000Y-62410000D03*
X136106000Y-55910000D03*
%TD*%
D11*
%TO.P,R4,1*%
%TO.N,A3*%
X143152500Y-84730000D03*
D12*
%TO.P,R4,2*%
%TO.N,Net-(D4-A)*%
X132992499Y-84729999D03*
%TD*%
D13*
%TO.P,D2,1,K*%
%TO.N,GND*%
X123341999Y-77194999D03*
D14*
%TO.P,D2,2,A*%
%TO.N,Net-(D2-A)*%
X125882000Y-77195000D03*
%TD*%
D13*
%TO.P,D3,1,K*%
%TO.N,GND*%
X132478999Y-77194999D03*
D14*
%TO.P,D3,2,A*%
%TO.N,Net-(D3-A)*%
X135019000Y-77195000D03*
%TD*%
D11*
%TO.P,R3,1*%
%TO.N,A2*%
X143152500Y-89525000D03*
D12*
%TO.P,R3,2*%
%TO.N,Net-(D3-A)*%
X132992499Y-89524999D03*
%TD*%
D11*
%TO.P,R5,1*%
%TO.N,A4*%
X163340000Y-89525000D03*
D12*
%TO.P,R5,2*%
%TO.N,Net-(D5-A)*%
X153179999Y-89524999D03*
%TD*%
D10*
%TO.P,SW9,1,1*%
%TO.N,GND*%
X122579000Y-62410000D03*
X122579000Y-55910000D03*
%TO.P,SW9,2,2*%
%TO.N,TD9*%
X127079000Y-62410000D03*
X127079000Y-55910000D03*
%TD*%
D13*
%TO.P,D1,1,K*%
%TO.N,GND*%
X114204999Y-77194999D03*
D14*
%TO.P,D1,2,A*%
%TO.N,Net-(D1-A)*%
X116745000Y-77195000D03*
%TD*%
D11*
%TO.P,R6,1*%
%TO.N,A5*%
X163340000Y-84730000D03*
D12*
%TO.P,R6,2*%
%TO.N,Net-(D6-A)*%
X153179999Y-84729999D03*
%TD*%
D10*
%TO.P,SW12,1,1*%
%TO.N,GND*%
X149660000Y-62410000D03*
X149660000Y-55910000D03*
%TO.P,SW12,2,2*%
%TO.N,TD12*%
X154160000Y-62410000D03*
X154160000Y-55910000D03*
%TD*%
D15*
%TO.P,J6,1,Pin_1*%
%TO.N,TD8*%
X105189999Y-49439999D03*
D16*
%TO.P,J6,2,Pin_2*%
%TO.N,TD9*%
X105190000Y-52940000D03*
%TO.P,J6,3,Pin_3*%
%TO.N,TD10*%
X105190000Y-56440000D03*
%TO.P,J6,4,Pin_4*%
%TO.N,TD11*%
X105190000Y-59940000D03*
%TO.P,J6,5,Pin_5*%
%TO.N,TD12*%
X105190000Y-63440000D03*
%TO.P,J6,6,Pin_6*%
%TO.N,TD13*%
X105190000Y-66940000D03*
%TD*%
D11*
%TO.P,R2,1*%
%TO.N,A1*%
X112805000Y-84730000D03*
D12*
%TO.P,R2,2*%
%TO.N,Net-(D2-A)*%
X122964999Y-84729999D03*
%TD*%
D15*
%TO.P,J5,1,Pin_1*%
%TO.N,A0*%
X105189999Y-79829999D03*
D16*
%TO.P,J5,2,Pin_2*%
%TO.N,A1*%
X105190000Y-83330000D03*
%TO.P,J5,3,Pin_3*%
%TO.N,A2*%
X105190000Y-86830000D03*
%TO.P,J5,4,Pin_4*%
%TO.N,A3*%
X105190000Y-90330000D03*
%TO.P,J5,5,Pin_5*%
%TO.N,A4*%
X105190000Y-93830000D03*
%TO.P,J5,6,Pin_6*%
%TO.N,A5*%
X105190000Y-97330000D03*
%TD*%
D13*
%TO.P,D4,1,K*%
%TO.N,GND*%
X141615999Y-77194999D03*
D14*
%TO.P,D4,2,A*%
%TO.N,Net-(D4-A)*%
X144156000Y-77195000D03*
%TD*%
D13*
%TO.P,D5,1,K*%
%TO.N,GND*%
X150752999Y-77194999D03*
D14*
%TO.P,D5,2,A*%
%TO.N,Net-(D5-A)*%
X153293000Y-77195000D03*
%TD*%
D17*
%TO.P,J3,1,Pin_1*%
%TO.N,A0*%
X150799999Y-97459999D03*
D18*
%TO.P,J3,2,Pin_2*%
%TO.N,A1*%
X153339999Y-97459999D03*
%TO.P,J3,3,Pin_3*%
%TO.N,A2*%
X155879999Y-97459999D03*
%TO.P,J3,4,Pin_4*%
%TO.N,A3*%
X158419999Y-97459999D03*
%TO.P,J3,5,Pin_5*%
%TO.N,A4*%
X160959999Y-97459999D03*
%TO.P,J3,6,Pin_6*%
%TO.N,A5*%
X163499999Y-97459999D03*
%TD*%
D17*
%TO.P,J2,1,Pin_1*%
%TO.N,A5*%
X118795999Y-49199999D03*
D18*
%TO.P,J2,2,Pin_2*%
%TO.N,A4*%
X121335999Y-49199999D03*
%TO.P,J2,3,Pin_3*%
%TO.N,/AREF*%
X123875999Y-49199999D03*
%TO.P,J2,4,Pin_4*%
%TO.N,GND*%
X126415999Y-49199999D03*
%TO.P,J2,5,Pin_5*%
%TO.N,TD13*%
X128955999Y-49199999D03*
%TO.P,J2,6,Pin_6*%
%TO.N,TD12*%
X131495999Y-49199999D03*
%TO.P,J2,7,Pin_7*%
%TO.N,TD11*%
X134035999Y-49199999D03*
%TO.P,J2,8,Pin_8*%
%TO.N,TD10*%
X136575999Y-49199999D03*
%TO.P,J2,9,Pin_9*%
%TO.N,TD9*%
X139115999Y-49199999D03*
%TO.P,J2,10,Pin_10*%
%TO.N,TD8*%
X141655999Y-49199999D03*
%TD*%
D17*
%TO.P,J4,1,Pin_1*%
%TO.N,/7*%
X145719999Y-49199999D03*
D18*
%TO.P,J4,2,Pin_2*%
%TO.N,/\u002A6*%
X148259999Y-49199999D03*
%TO.P,J4,3,Pin_3*%
%TO.N,/\u002A5*%
X150799999Y-49199999D03*
%TO.P,J4,4,Pin_4*%
%TO.N,/4*%
X153339999Y-49199999D03*
%TO.P,J4,5,Pin_5*%
%TO.N,/\u002A3*%
X155879999Y-49199999D03*
%TO.P,J4,6,Pin_6*%
%TO.N,/2*%
X158419999Y-49199999D03*
%TO.P,J4,7,Pin_7*%
%TO.N,/TX{slash}1*%
X160959999Y-49199999D03*
%TO.P,J4,8,Pin_8*%
%TO.N,/RX{slash}0*%
X163499999Y-49199999D03*
%TD*%
D17*
%TO.P,J1,1,Pin_1*%
%TO.N,unconnected-(J1-Pin_1-Pad1)*%
X127939999Y-97459999D03*
D18*
%TO.P,J1,2,Pin_2*%
%TO.N,/IOREF*%
X130479999Y-97459999D03*
%TO.P,J1,3,Pin_3*%
%TO.N,/~{RESET}*%
X133019999Y-97459999D03*
%TO.P,J1,4,Pin_4*%
%TO.N,+3V3*%
X135559999Y-97459999D03*
%TO.P,J1,5,Pin_5*%
%TO.N,+5V*%
X138099999Y-97459999D03*
%TO.P,J1,6,Pin_6*%
%TO.N,GND*%
X140639999Y-97459999D03*
%TO.P,J1,7,Pin_7*%
X143179999Y-97459999D03*
%TO.P,J1,8,Pin_8*%
%TO.N,VCC*%
X145719999Y-97459999D03*
%TD*%
D19*
%TO.N,TD8*%
X141656000Y-49200000D02*
X140480900Y-49200000D01*
X105190000Y-49440000D02*
X106715100Y-49440000D01*
X118052000Y-54336600D02*
X118052000Y-55910000D01*
X111611700Y-54336600D02*
X106715100Y-49440000D01*
X118052000Y-54336600D02*
X111611700Y-54336600D01*
X140480900Y-49567400D02*
X140480900Y-49200000D01*
X138208400Y-51839900D02*
X140480900Y-49567400D01*
X120548700Y-51839900D02*
X138208400Y-51839900D01*
X118052000Y-54336600D02*
X120548700Y-51839900D01*
%TO.N,TD10*%
X105992300Y-57242300D02*
X105190000Y-56440000D01*
X118713600Y-57242300D02*
X105992300Y-57242300D01*
X121867700Y-54088200D02*
X118713600Y-57242300D01*
X134284200Y-54088200D02*
X121867700Y-54088200D01*
X136106000Y-55910000D02*
X134284200Y-54088200D01*
%TO.N,TD11*%
X103661700Y-58411700D02*
X105190000Y-59940000D01*
X103661700Y-48063600D02*
X103661700Y-58411700D01*
X103810500Y-47914800D02*
X103661700Y-48063600D01*
X108327000Y-47914800D02*
X103810500Y-47914800D01*
X111537400Y-51125200D02*
X108327000Y-47914800D01*
X132110800Y-51125200D02*
X111537400Y-51125200D01*
X134036000Y-49200000D02*
X132110800Y-51125200D01*
%TO.N,TD12*%
X131496000Y-49200000D02*
X132671100Y-49200000D01*
X151015600Y-52765600D02*
X154160000Y-55910000D01*
X145953300Y-52765600D02*
X151015600Y-52765600D01*
X143560200Y-50372500D02*
X145953300Y-52765600D01*
X136693900Y-57238800D02*
X143560200Y-50372500D01*
X134850500Y-57238800D02*
X136693900Y-57238800D01*
X132196500Y-54584800D02*
X134850500Y-57238800D01*
X122007800Y-54584800D02*
X132196500Y-54584800D01*
X115983900Y-60608700D02*
X122007800Y-54584800D01*
X108021300Y-60608700D02*
X115983900Y-60608700D01*
X105190000Y-63440000D02*
X108021300Y-60608700D01*
X132671100Y-48832800D02*
X132671100Y-49200000D01*
X133479100Y-48024800D02*
X132671100Y-48832800D01*
X142175400Y-48024800D02*
X133479100Y-48024800D01*
X143560200Y-49409600D02*
X142175400Y-48024800D01*
X143560200Y-50372500D02*
X143560200Y-49409600D01*
%TO.N,TD13*%
X128956000Y-49200000D02*
X130131100Y-49200000D01*
X130131100Y-48832600D02*
X130131100Y-49200000D01*
X131424800Y-47538900D02*
X130131100Y-48832600D01*
X142394300Y-47538900D02*
X131424800Y-47538900D01*
X144235200Y-49379800D02*
X142394300Y-47538900D01*
X144235200Y-49898000D02*
X144235200Y-49379800D01*
X146202600Y-51865400D02*
X144235200Y-49898000D01*
X159142400Y-51865400D02*
X146202600Y-51865400D01*
X163187000Y-55910000D02*
X159142400Y-51865400D01*
%TO.N,Net-(D6-A)*%
X154895000Y-84730000D02*
X153180000Y-84730000D01*
X162430000Y-77195000D02*
X154895000Y-84730000D01*
%TO.N,Net-(D4-A)*%
X136621000Y-84730000D02*
X132992500Y-84730000D01*
X144156000Y-77195000D02*
X136621000Y-84730000D01*
%TO.N,A1*%
X106590000Y-84730000D02*
X105190000Y-83330000D01*
X112805000Y-84730000D02*
X106590000Y-84730000D01*
%TO.N,A2*%
X155880000Y-97460000D02*
X154704900Y-97460000D01*
X147137100Y-89525000D02*
X143152500Y-89525000D01*
X154704900Y-97092800D02*
X147137100Y-89525000D01*
X154704900Y-97460000D02*
X154704900Y-97092800D01*
X140457500Y-86830000D02*
X105190000Y-86830000D01*
X143152500Y-89525000D02*
X140457500Y-86830000D01*
%TO.N,A3*%
X141992500Y-85890000D02*
X143152500Y-84730000D01*
X108234800Y-85890000D02*
X141992500Y-85890000D01*
X107649000Y-85304200D02*
X108234800Y-85890000D01*
X104511300Y-85304200D02*
X107649000Y-85304200D01*
X103638400Y-86177100D02*
X104511300Y-85304200D01*
X103638400Y-88778400D02*
X103638400Y-86177100D01*
X105190000Y-90330000D02*
X103638400Y-88778400D01*
%TO.N,A4*%
X159784900Y-97825200D02*
X159784900Y-97460000D01*
X158953400Y-98656700D02*
X159784900Y-97825200D01*
X119471100Y-98656700D02*
X158953400Y-98656700D01*
X114644400Y-93830000D02*
X119471100Y-98656700D01*
X105190000Y-93830000D02*
X114644400Y-93830000D01*
X160960000Y-97460000D02*
X159784900Y-97460000D01*
%TO.N,A5*%
X162210500Y-94995400D02*
X163500000Y-96284900D01*
X162210500Y-85859500D02*
X162210500Y-94995400D01*
X163340000Y-84730000D02*
X162210500Y-85859500D01*
X163500000Y-97460000D02*
X163500000Y-96284900D01*
%TO.N,A0*%
X119564900Y-96284900D02*
X112805000Y-89525000D01*
X148449800Y-96284900D02*
X119564900Y-96284900D01*
X149624900Y-97460000D02*
X148449800Y-96284900D01*
X150800000Y-97460000D02*
X149624900Y-97460000D01*
X110446900Y-91883100D02*
X112805000Y-89525000D01*
X104542800Y-91883100D02*
X110446900Y-91883100D01*
X103164700Y-90505000D02*
X104542800Y-91883100D01*
X103164700Y-83189800D02*
X103164700Y-90505000D01*
X104999400Y-81355100D02*
X103164700Y-83189800D01*
X105190000Y-81355100D02*
X104999400Y-81355100D01*
X105190000Y-79830000D02*
X105190000Y-81355100D01*
%TO.N,GND*%
X143180000Y-97460000D02*
X140640000Y-97460000D01*
X150753000Y-77195000D02*
X151978100Y-77195000D01*
X159890000Y-77195000D02*
X158664900Y-77195000D01*
X115430100Y-76735500D02*
X115430100Y-77195000D01*
X116195700Y-75969900D02*
X115430100Y-76735500D01*
X120891800Y-75969900D02*
X116195700Y-75969900D01*
X122116900Y-77195000D02*
X120891800Y-75969900D01*
X123342000Y-77195000D02*
X122116900Y-77195000D01*
X114205000Y-77195000D02*
X115430100Y-77195000D01*
X121227900Y-57261100D02*
X121227900Y-61058900D01*
X122579000Y-55910000D02*
X121227900Y-57261100D01*
X122579000Y-62410000D02*
X121227900Y-61058900D01*
X114903100Y-61058900D02*
X113552000Y-62410000D01*
X121227900Y-61058900D02*
X114903100Y-61058900D01*
X133704100Y-77654500D02*
X133704100Y-77195000D01*
X134469700Y-78420100D02*
X133704100Y-77654500D01*
X139165800Y-78420100D02*
X134469700Y-78420100D01*
X140390900Y-77195000D02*
X139165800Y-78420100D01*
X141616000Y-77195000D02*
X140390900Y-77195000D01*
X132479000Y-77195000D02*
X133704100Y-77195000D01*
X131606000Y-55910000D02*
X130280800Y-57235200D01*
X123904200Y-57235200D02*
X122579000Y-55910000D01*
X130280800Y-57235200D02*
X123904200Y-57235200D01*
X131606000Y-58560400D02*
X131606000Y-61084800D01*
X130280800Y-57235200D02*
X131606000Y-58560400D01*
X131606000Y-61084800D02*
X131606000Y-62410000D01*
X140633000Y-62410000D02*
X139307800Y-61084800D01*
X139307800Y-61084800D02*
X131606000Y-61084800D01*
X141901900Y-57178900D02*
X141901900Y-57235200D01*
X140633000Y-55910000D02*
X141901900Y-57178900D01*
X141901900Y-58490700D02*
X139307800Y-61084800D01*
X141901900Y-57235200D02*
X141901900Y-58490700D01*
X141901900Y-57235200D02*
X148334800Y-57235200D01*
X148334800Y-57235200D02*
X149660000Y-55910000D01*
X152743800Y-75969900D02*
X157439800Y-75969900D01*
X151978100Y-76735600D02*
X152743800Y-75969900D01*
X151978100Y-77195000D02*
X151978100Y-76735600D01*
X157439800Y-75969900D02*
X158664900Y-77195000D01*
X148334800Y-61084800D02*
X149660000Y-62410000D01*
X148334800Y-57235200D02*
X148334800Y-61084800D01*
X150985200Y-63735200D02*
X157439800Y-63735200D01*
X149660000Y-62410000D02*
X150985200Y-63735200D01*
X157439800Y-75969900D02*
X157439800Y-63735200D01*
X157439800Y-63657200D02*
X158687000Y-62410000D01*
X157439800Y-63735200D02*
X157439800Y-63657200D01*
%TD*%
M02*
