<?xml version="1.0" standalone="no"?>
 <!DOCTYPE svg PUBLIC "-//W3C//DTD SVG 1.1//EN" 
 "http://www.w3.org/Graphics/SVG/1.1/DTD/svg11.dtd"> 
<svg
  xmlns:svg="http://www.w3.org/2000/svg"
  xmlns="http://www.w3.org/2000/svg"
  xmlns:xlink="http://www.w3.org/1999/xlink"
  version="1.1"
  width="68.7070mm" height="53.4670mm" viewBox="0.0000 0.0000 68.7070 53.4670">
<title>SVG Image created as flipperbrain-shield-brd.svg date 2023/07/27 21:20:38 </title>
  <desc>Image generated by PCBNEW </desc>
<g style="fill:#000000; fill-opacity:1.0000;stroke:#000000; stroke-opacity:1.0000;
stroke-linecap:round; stroke-linejoin:round;"
 transform="translate(0 0) scale(1 1)">
</g>
<g style="fill:#000000; fill-opacity:0.0; 
stroke:#000000; stroke-width:0.0000; stroke-opacity:1; 
stroke-linecap:round; stroke-linejoin:round;">
</g>
<g style="fill:#000000; fill-opacity:0.0; 
stroke:#000000; stroke-width:0.1500; stroke-opacity:1; 
stroke-linecap:round; stroke-linejoin:round;">
<path d="M66.1150 12.7750
L68.6550 15.3150
" />
<path d="M0.0750 52.6530
L0.0750 0.8370
" />
<path d="M68.6550 15.3150
L68.6550 49.6050
" />
<path d="M65.3530 53.4150
L0.8370 53.4150
" />
<path d="M0.8370 0.0750
L63.5750 0.0750
" />
<path d="M0.0750 52.6530 A0.7620 0.7620 0.0 0 0 0.8370 53.4150" />
<path d="M68.6550 49.6050
L66.1150 52.1450
" />
<path d="M63.5750 0.0750
L66.1150 2.6150
" />
<path d="M65.3530 53.4150 A0.7620 0.7620 0.0 0 0 66.1150 52.6530" />
<path d="M66.1150 2.6150
L66.1150 12.7750
" />
<path d="M66.1150 52.1450
L66.1150 52.6530
" />
<path d="M0.8370 0.0750 A0.7620 0.7620 0.0 0 0 0.0750 0.8370" />
<g >
</g>
<g >
</g>
<g >
</g>
<g >
</g>
<g >
</g>
<g >
</g>
<g >
</g>
<g >
</g>
<g >
</g>
<g >
</g>
<g >
</g>
<g >
</g>
<g >
</g>
<g >
</g>
<g >
</g>
<g >
</g>
<g >
</g>
<g >
</g>
<g >
</g>
<g >
</g>
<g >
</g>
<g >
</g>
<g >
</g>
<g >
</g>
<g >
</g>
<g >
</g>
<g >
</g>
<g >
</g>
<g >
</g>
<g >
</g>
</g> 
</svg>
